<!-- Generator: Adobe Illustrator 19.2.1, SVG Export Plug-In  -->
<svg version="1.1"
	 xmlns="http://www.w3.org/2000/svg" xmlns:xlink="http://www.w3.org/1999/xlink" xmlns:a="http://ns.adobe.com/AdobeSVGViewerExtensions/3.0/"
	 x="0px" y="0px" width="896.9px" height="179.2px" viewBox="0 0 896.9 179.2" style="enable-background:new 0 0 896.9 179.2;"
	 xml:space="preserve">
<style type="text/css">
	.st0{fill:#FFFFFF;}
	.st1{fill:#04A580;}
	.st2{fill:#0396D2;}
	.st3{fill:#E3361B;}
	.st4{fill:#FFD219;}
	.st5{fill:#FFD207;}
	.st6{fill:#815C45;}
	.st7{fill:#432717;}
	.st8{fill:#262626;}
	.st9{fill:#FFE281;}
	.st10{fill:#885519;}
	.st11{fill:#1E1F1D;}
	.st12{fill:#9D7139;}
	.st13{fill:#CE8614;}
	.st14{fill:#95631B;}
	.st15{fill:#7F5019;}
	.st16{fill:#DE9500;}
	.st17{fill:#6B3E28;}
	.st18{fill:#FFE389;}
</style>
<defs>
</defs>
<g>
	<g>
	<g>
	<path class="st0" d="M30.3,144.6c0,0,5.8-4.3,6.4-7c0.6-2.6-3.6-11.8-8.3-16.2c-4.7-4.3-13.5-4.5-15.6,0s-2.4,6.8-7.3,11.8
	s-6.7,5.7-3.5,10.1c3.2,4.4,21.6,22.8,45.1,29.9c4.4,1.4,15.1,5.2,32,5.2s39.9-4.6,61.3-20.6c3-2.3,17-13.4,17.6-18.4
	c0.4-3.9-4.5-7-7.5-12.2c-3-5.2-3.7-13.8-15.9-9.2c-1,0.4-3.3,1.6-4.5,3.6s-4.4,6.4-6.8,8.9c-2.3,2.5-1.9,5.7-0.2,7.7
	c1,1.2,6,5.3,6,5.3c-15.1,10-27.4,16.1-49.7,16.5C77.1,160.3,53.8,161.7,30.3,144.6"/>
	<path class="st1" d="M14.7,79.9c0,0-0.3,31.3,23.7,55.2c19.4,19.4,40.9,23.1,40.9,23.1V52.8H14.7V79.9z"/>
	<path class="st2" d="M143.7,79.9c0,0,0.3,31.3-23.7,55.2c-19.4,19.4-40.9,23.1-40.9,23.1V52.8h64.5L143.7,79.9L143.7,79.9z"/>
	<rect x="14.7" y="0.7" class="st3" width="129" height="52.1"/>
	<path class="st4" d="M123.5,125.2H88.3c0,0-0.8,8-8.7,7.8c-8.9-0.2-8.7-7.8-8.7-7.8H36.3V62.3h87.2V125.2z"/>
	<path class="st0" d="M46.6,59.4c0,0,3.5,2.6,8.5,1.9s14.5-5.7,19.9-2.9c5.5,2.9,4.7,2.1,4.7,2.1s5.7-5.9,14.5-3.7
	c8.9,2.2,8.7,4.7,13.2,4.2c4.6-0.5,5.5-2,5.5-2v54.4c0,0-3.2,3.5-10.2,2.1s-12.3-6.6-23.2,0.7c0,0-6.2-4.4-12.7-3.3
	c-6.5,1.1-13.3,6.3-20.9,2.1L46,60.5L46.6,59.4z"/>
	<path class="st5" d="M123.6,42.7c1.5,0,2.6,0.4,3.4,1.1l-0.1,0.3c-1,0.3-1.7,1.4-2.6,1.2c-0.6-0.2-0.6-0.3-1-0.7
	C123.3,43.8,123.4,43.2,123.6,42.7"/>
	<path class="st5" d="M24.9,36.6c2.1,0.4,3.7,2.8,4.7,4.3v0.2h-0.7c-2.1-0.6-4.1-0.7-4.9-2.7C24.3,37.5,24.5,37.2,24.9,36.6"/>
	<path class="st5" d="M45.8,13.5L45,13.4c-0.4,1.2,0.6,2.5,1.7,3c0.3,0,0.6,0.1,0.9,0.1c0.3-0.4,0.5-0.8,0.8-1.2
	c0.1-0.2,0-0.5-0.5-0.4C47.9,14.9,47.1,14,45.8,13.5"/>
	<rect x="78.9" y="60.5" class="st6" width="0.8" height="55.7"/>
	<path class="st7" d="M143.1,52H15.5V1.4h127.6V52z M143.3,74.4c0,30.7-15.5,53.7-31.4,66.8C99,151.8,85,156.4,80.5,157.1
	l-0.2-23.7c-0.5,0-1-0.1-1.4-0.3V157c-12.2-0.9-63.4-23.8-63.4-82.7v-21h63.2v7.9c0.4,0.6,0.9,0.7,1.4,0.3v-8.2h63.2L143.3,74.4
	L143.3,74.4z M14.1,0v74.4c0,32.7,15.4,53.4,28.2,65c15.3,13.8,34.2,19.5,36.9,19.5c3.1,0,18.9-5.8,28.7-12.8
	c17.5-12.6,36-35.6,36.6-71.8V0H14.1z"/>
	<path class="st7" d="M158.4,137.2c-0.5-1.5-1.1-2.3-2.4-3.8c-1-1.2-2.4-2.9-4.4-5.7c-1.5-2.1-2.4-4-3.1-5.6c-1.4-3-2.4-5.2-6-5.8
	c-4.1-0.7-7.6,0.8-10.6,3c-1,1.6-1.9,3.1-3,4.5c3.6-3.8,7.9-7.1,13.4-6.1c2.8,0.5,3.6,2.1,4.9,5c0.8,1.6,1.7,3.6,3.3,5.8
	c2,2.9,3.5,4.6,4.5,5.8c1.2,1.4,1.8,2.1,2.1,3.3c0.5,1.8,0.3,4.1-5,9.4c-14.5,14.5-32,24.1-52,28.7c-7.3,1.7-20.9,2.2-21.1,2.2
	c-0.1,0-13.7-0.6-21-2.2c-29.5-6.7-45.1-22.3-50.2-27.4L7.5,148c-4.8-4.8-6.7-6.8-6.1-8.9c0.3-1,1-1.7,2.2-2.8
	c1.4-1.3,3.3-3.1,5.7-6.5c1.6-2.2,2.5-4.2,3.3-5.8c1.4-2.9,2.2-4.6,5-5.1c4.4-0.7,7.4,0.7,10,3.1c-0.7-1-1.3-2.1-1.9-3.2
	c-2.2-1.3-4.9-1.9-8.3-1.4c-3.6,0.6-4.6,2.8-6,5.8c-0.8,1.6-1.7,3.5-3.1,5.6c-2.3,3.3-4.2,5-5.5,6.3c-1.3,1.2-2.2,2-2.6,3.4
	c-0.9,2.9,1.6,5.4,6.5,10.3l0.3,0.3c5.2,5.2,21,21,50.9,27.8c7.4,1.7,20.8,2.2,21.3,2.3c0.6,0,14-0.6,21.4-2.3
	c20.3-4.6,38-14.4,52.7-29.1C157.8,143.2,159.4,140.2,158.4,137.2 M33.7,135.7c0,1.5-0.8,2.2-1.6,2.4c-0.9,0.2-2.2-0.5-3-2.7
	c-1.3-3.7-4.2-8.5-4.4-8.7l-0.5-0.9c0,0-4.9,6.2-5.8,7.3c-1.9-2.6-3.1-5.1-3.1-7.3v-0.3c0.1-1.9,0.7-3,1.8-3.6
	c2.6-1.3,7.3,0.9,8.3,1.6C31.5,127.6,33.7,132.5,33.7,135.7 M137.6,126.2l-0.5,0.4c-0.1,0.1-3.4,2.7-5.4,7.1
	c-0.9,2-3.1,3.5-4.8,3.2c-1.4-0.2-1.9-1.6-2-2.8c-0.4-3.4,2.6-7.6,8-11.3c1.2-0.8,6.9-3.6,9.7-2.2c1,0.5,1.6,1.6,1.6,3.2v0.3
	c0,2-0.9,4.3-2.5,6.8C140.7,129.9,137.6,126.2,137.6,126.2 M16.7,120.7c-1.6,0.8-2.5,2.4-2.6,4.8c-0.4,8.7,14.9,22.1,34.3,29.7
	c10,3.9,20,5.9,30.7,5.9c11.4,0,24.1-2.9,30.8-5.7c17.9-7.6,36.2-21.5,35.7-31.6c-0.1-2.2-0.9-3.7-2.4-4.4
	c-3.6-1.8-10.1,1.6-11.1,2.3c-5.9,4.1-9,8.7-8.6,12.6c0.3,2.3,1.4,3.7,3.2,4c2.3,0.4,5.1-1.4,6.3-4c1.4-3.1,3.5-5.3,4.5-6.2
	c0.7,0.8,2.9,3.4,3.3,3.9c-2.6,3.5-6.6,7.2-11.5,10.8c-0.7-0.5-4.1-3.2-5.5-4.7c-1.6-1.8-1.8-4.3-0.5-7c-0.7,0.8-1.5,1.7-2.2,2.4
	c-0.3,2.1,0.3,4,1.7,5.5c1.3,1.4,4.2,3.8,5.4,4.6c-5.4,3.8-11.8,7.4-18.7,10.3c-6.6,2.8-19.1,5.6-30.2,5.6
	c-10.5,0-20.3-1.9-30.1-5.8c-6.5-2.5-12.5-5.8-17.6-9.3c1.1-1,3.8-3.4,5-4.8c1.1-1.2,1.6-2.9,1.4-4.9c-0.6-0.7-1.3-1.4-1.9-2.1
	c0.9,2.5,0.8,4.6-0.5,6s-4.3,4.1-5.2,4.9c-4.4-3.1-8.1-6.4-10.6-9.5c0.5-0.7,3.8-4.8,4.7-6c0.9,1.6,2.8,4.9,3.7,7.6
	c1.1,3.1,3.1,3.9,4.6,3.6c1.6-0.3,2.8-1.9,2.7-3.8c-0.1-3.6-2.4-8.9-8.8-13.3C25.5,121.8,20.1,119,16.7,120.7"/>
	<g>
	<path class="st8" d="M13.1,141.5c-0.1-2.7-1-5,0.7-5.3c1.8-0.3,2.6,2.3,2.1,3.7l2.4-1.2c0,0,0.6-0.2-1.1-0.3
	c-0.2-1.6-1.3-3.2-4.2-2.9c-2.8,0.3-1.8,3.4-1.6,4.7c0.1,1.3,0,4.8-2,4.6c-2-0.1-1.8-3.6-1.6-4.5c-0.9,0.4-2.6,1.6-2.7,1.7
	c-0.1,0,0,0.1,0.3,0.1s0.9-0.1,0.9,0.1c0,0.2,1.1,3.4,3.3,3.2C11.7,145.2,13.1,144.1,13.1,141.5z"/>
	<path class="st8" d="M21.9,142l-1.2-0.9c0,0-8.1,5.4-8.9,5.9c-0.2,0.1-0.7,0.1-1.1,0c-0.3-0.1-0.3,0.1-0.2,0.2l1.9,1.8l0.2-0.1
	c-0.1-0.1-0.5-0.6-0.1-0.9c0.2-0.1,1.4-1,3-2l2.4,2.1l-1.5,3.6c-0.1,0.3-0.9-0.1-0.9-0.1l-0.1,0.2c0.6,0.6,2.1,1.9,2.3,2
	l0.2-0.2c-0.2-0.2-0.3-0.5,0.3-2C18.6,149.8,21.9,142,21.9,142z M16,145.4c1.9-1.3,3.9-2.7,3.9-2.7l-1.8,4.4L16,145.4z"/>
	<path class="st8" d="M69.8,172.5c-0.3-1.7-2.2-10-2.2-10l-1.2-0.1c0,0-4.8,8.8-5.2,9.7c-0.1,0.2-0.6,0.4-1,0.5
	c-0.3,0.1-0.2,0.2-0.1,0.2l2.6,0.6l0.1-0.2c-0.1-0.1-0.8-0.2-0.6-0.7c0.1-0.2,0.9-1.6,1.7-3.2l3.7,0.3l0.7,3.7
	c0.1,0.3-0.8,0.5-0.8,0.5s-0.2,0.2,0.1,0.2c0.9,0.1,2.8,0.1,3,0.1v-0.3C70.4,173.9,70.1,174.1,69.8,172.5z M64.4,168.6
	c1-2.1,2.3-4.3,2.3-4.3l0.9,4.5L64.4,168.6z"/>
	<path class="st8" d="M29.3,151.7c1.3-2.1-0.2-4.3-2.4-5.5c-2.2-1.2-2.4-1.5-2.4-1.5s-0.3,0.1,0,0.3c0.3,0.3,0.4,0.6,0.1,1
	s-5.2,7.2-5.6,7.6s-0.9,0-0.9,0.4l2,1.5l0.2-0.2c-0.1-0.2-0.6-0.6,0.4-1.8c0.3-0.3,0.7-0.9,1.3-1.7c0.4,0.3,1.2,0.9,2,1.2
	C25.2,153.2,27.9,153.8,29.3,151.7z M26,146.3c0,0,3.5,2.1,1.8,4.9c-1.5,2.4-4.5,0.8-5.4,0C24,149.1,26,146.3,26,146.3z"/>
	<path class="st8" d="M27.9,159.1c0.4-0.6,4.5-7.2,5-7.8c0.4-0.6,0.8-0.4,1-0.3c0.3,0.1,0.3-0.1,0.1-0.2l-2.5-1.5l-0.1,0.1
	l0.1,0.1c0,0,0.6,0.6,0,1.5c-0.6,1-4.8,7.3-4.8,7.3s-0.4,0.5-1.2,0.3c-0.1,0-0.3,0.1-0.1,0.2c0.6,0.4,1.8,1.1,2.2,1.4
	c0.3,0.2,0.1-0.2,0.1-0.2S27.5,159.7,27.9,159.1z"/>
	<path class="st8" d="M35.2,163.5c-0.3-0.1-3.4-1.9-3.4-1.9l1.8-3.3c0.3,0.2,0.7,0.4,1.1,0.6c0.8,0.4,1.3,0.7,1.1,1.3
	c-0.3,0.6,0,0.7,0.2,0.3s0.8-1.3,1.1-1.9c0.3-0.6,0.2-0.9,0-0.4c-0.3,0.4-0.7,0.6-1.2,0.4c-0.3-0.2-1.3-0.7-1.8-1l2.2-4.1
	c0,0,2.1,1,3.5,1.9c-0.1,0.9-0.1,1.6,0.1,1.4l1-2c-0.5-0.1-5.9-3-5.9-3c-0.6-0.2,0.4,0.9,0.1,1.2c-0.2,0.3-3.6,6.7-4.1,7.5
	c-0.5,0.9-0.5,0.8-1.2,0.7s-0.8,0.1-0.5,0.3c1.4,0.7,6.4,3.5,6.5,3.2l1.1-2C36.5,162.5,35.8,163.7,35.2,163.5z"/>
	<path class="st8" d="M85.1,173.6c-0.4,0-4.2,0.2-4.2,0.2v-5c0.3,0,0.9,0,1.5,0c1-0.1,1.5-0.1,1.6,0.6c0.1,0.6,0.3,0.6,0.3,0.1
	c0-0.4,0-1.5,0-2.2c0-0.7-0.2-0.9-0.3-0.4c0,0.5-0.3,0.9-0.8,0.9c-0.4,0-1.7,0.1-2.2,0.1v-4c0,0,2.5-0.2,4-0.2
	c0.3,0.8,0.8,1.4,0.8,1.2c0-0.3-0.2-2.2-0.2-2.2c-0.5,0.1-6.6,0.5-6.6,0.5c-0.6,0.1,0.7,0.5,0.8,1c0,0.4-0.1,7.8-0.1,8.8
	c-0.1,1-0.1,1.2-0.8,1.4c-0.7,0.2-0.7,0.5-0.3,0.5c1.6,0,7.8-0.3,7.8-0.3l0.4-3.2C86.5,171.4,85.8,173.5,85.1,173.6z"/>
	<path class="st8" d="M50,158.4c-0.4-0.1-2.3-0.7-2.6-0.8c-0.4-0.1-0.3,0.3,0,0.4c0.3,0.2,0.4,0.4,0.2,0.9
	c-0.1,0.5-2.7,7.4-2.7,7.4l-1.6-10.1c0,0-1.4-0.8-1.7-1c-0.3-0.2-0.4,0.2-0.1,0.4c0.3,0.3,0.3,0.5,0.1,1c-0.2,0.5-3.8,7.5-4,7.8
	c-0.2,0.3-1.3,0-1.1,0.4c0,0,2.1,0.9,2.6,1.1c0.4,0.1,0.3-0.2-0.1-0.7c-0.1-0.1-0.1-0.5,0.3-1.1c0.3-0.6,2.8-5.7,2.8-5.7
	l1.5,9.3l1.8,0.6c0,0,3.2-8.3,3.5-9.1c0.3-0.8,0.7-0.6,1.1-0.5C50.3,158.9,50.3,158.6,50,158.4z"/>
	<path class="st8" d="M58,160.9l-7-2l-0.6,2.1c0.9-1,1.9-0.9,1.9-0.9s0.5,0.1,1.2,0.3c-0.4,1.4-2.4,8.2-2.6,8.9
	c-0.3,0.8-1,0.4-1.2,0.7c-0.1,0.1,0,0.2,0.3,0.3c0.4,0.1,1.8,0.6,2.1,0.7c0.3,0.1,0.3,0.1,0.4,0c0.1-0.4-0.7-0.4-0.4-1.2
	c0.1-0.3,2.3-7.9,2.6-9c0.6,0.2,1.3,0.4,1.7,0.5c0.4,0.1,0.9,0.7,0.9,1.7C57.6,162.2,58,160.9,58,160.9z"/>
	<path class="st8" d="M87.6,163.1l0.2,2.2c0.4-1.3,1.4-1.6,1.4-1.6s1.4-0.2,2.1-0.2c0.2,1.4,0.9,8.5,0.9,9.2
	c0.1,0.8-0.8,0.7-0.8,1.1c0,0.1,0.1,0.2,0.4,0.1c0.4-0.1,2-0.3,2.3-0.3c0.3-0.1,0.3,0,0.3-0.1c0-0.4-0.9,0-1-0.8
	c0-0.3-0.8-8.2-0.9-9.3c0.7-0.1,1.7-0.3,2.5-0.4c0.4-0.1,1,0.2,1.4,1.1c-0.1-0.8-0.2-2.2-0.2-2.2L87.6,163.1z"/>
	<path class="st8" d="M59.5,172.1c-0.1,0-0.3-0.3-0.2-0.8c0,0,1.5-8.1,1.6-8.7c0.1-0.6,0.4-0.5,0.7-0.5c0.3,0,0.6-0.4,0-0.5
	s-1.7-0.3-2.3-0.4c-0.4-0.1-0.5,0.3-0.3,0.4c0.3,0.1,0.7,0.5,0.6,0.8c-0.1,0.4-1.5,7.8-1.7,8.6c-0.1,0.5-0.4,0.8-0.8,0.7
	c-0.3-0.1-0.4,0.3-0.2,0.3l2.7,0.6C59.7,172.6,59.9,172.3,59.5,172.1z"/>
	<circle class="st8" cx="74.1" cy="168.9" r="0.9"/>
	<circle class="st8" cx="99.9" cy="166.8" r="0.9"/>
	<path class="st8" d="M111.1,157.6l-2,0.9l0.1,0.2c0.5-0.2,0.7,0,0.7,0l-0.7,9.9l-5.1-8c-0.1-0.2-0.2-0.3,0.2-0.5
	c0.6-0.3,0.2-0.4,0.2-0.4l-3.4,0.7c-0.2,0.1-0.1,0.4,0.3,0.3c0.5-0.1,0.9,0,0.9,0l6,9.2l1.6-0.6l0.9-11.1
	C110.8,158,110.8,157.9,111.1,157.6C111.6,157.6,111.2,157.5,111.1,157.6z"/>
	<path class="st8" d="M118.4,166.1c-0.4,0.2-0.7-0.3-0.8-0.7c-0.2-0.4-3.5-8.1-3.5-8.1c-0.1-0.2,0.1-0.5,0.4-0.7
	c0.2-0.2,0.2-0.5-0.1-0.3c-0.3,0.2-2.5,1.2-2.7,1.3s-0.1,0.3,0.3,0.2c0.4-0.1,0.6-0.1,0.7,0c0,0,3.6,8.4,3.7,8.7
	c0.1,0.3,0.1,0.7-0.2,1c-0.4,0.3-0.2,0.5,0,0.3c0.2-0.1,2-1.1,2.5-1.3C119,166.1,118.8,165.9,118.4,166.1z"/>
	<path class="st8" d="M130.3,160.3c-0.8,0.2-1.4-0.2-2.8-1.3c-1.3-1.1-2.8-2-3.5-1.7c0.2-0.4,0.8-1.9,0-3.2
	c-0.8-1.3-2.8-1.5-3.8-1.1c-0.9,0.5-4.5,2.5-4.5,2.5c-0.2,0.5,0.3,0.4,1.1,0.1l4.9,9.3c-0.5,0.4-0.5,0.7-0.5,0.7l2.7-1.3
	c0,0,0-0.2-0.8,0l-2-3.9c0.2-0.3,0.7-0.8,1.2-1.3c1.5-1.2,3.5,0.7,4.9,1.7s1.6,0.8,2.2,0.3C130,160.7,131.1,160.1,130.3,160.3z
	 M123,157.7c-0.5,0.6-1.6,1.6-2.2,2.1l-2.5-4.8c0.5-0.3,1-0.5,1.4-0.7c1-0.6,1.6-0.4,2.6-0.1C123.2,154.6,123.7,156.9,123,157.7
	z"/>
	<path class="st8" d="M134,157.5l-5.1-8.2c0.6-0.4,1.1-0.8,1.5-1c1.1-0.7,2.2,0.4,2.2,0.4l-1.3-2l-6.8,4.6l1.3,1.8
	c0,0-0.5-1.3,0.3-1.8c0.3-0.2,0.9-0.6,1.6-1.1l5.2,8.1c-1,0.7-0.4,0.8-0.4,0.8l2.4-1.6C134.8,157.5,134.9,157,134,157.5z"/>
	<path class="st8" d="M146.2,147.8c-0.1,0.4-1.1,0.9-1.9,0.1c-0.8-0.8-3.7-4.7-4.8-5.9c-1-1.3-0.5-1.9-0.5-1.9l-2.3,2
	c0,0,0.7-0.3,1.2,0.3s4.1,5.3,4.4,5.6c0.1,0.2,0.2,0.3,0.4,0.4c0.1,3.3-2.4,4.2-3.3,3.5c-0.9-0.7-4.1-4.9-4.8-5.8
	c-0.7-0.9-0.3-1.8-0.3-1.8l-2.6,2c0,0,0.8-0.1,1.5,0.7c0.8,1,1.7,2.1,4.1,5c0.6,0.7,1.4,2,3.3,1.1c1.6-0.8,2.4-3.2,2.3-4.5
	c0.2,0.2,0.4,0.3,0.8,0.6c1.5,1,2.1-0.3,2.3-1C146.4,147.6,146.3,147.3,146.2,147.8z"/>
	<path class="st8" d="M147.5,138.3c-2.1-0.1-5.2,1.9-5.5,0.5c-0.2-1.3,2.3-2.7,3.7-1.9l-0.8-3.2c0,0-0.3,0.2-0.3,0.5
	c0,0.3,0,0.8-0.4,0.9c-0.4,0-1.6-0.1-2.8,2.2c-0.4,0.8-0.3,4,1.6,3.6c1.9-0.4,5.7-1.9,6.9,0.4c1.3,2.4-1.6,4.1-3.8,2.9
	c0,0,0.8,2.6,1.1,3.3c0.2-0.2,0.2-0.8,0.4-1c0.5-0.5,2.9-0.7,3.2-3.8C151.2,139.6,149.1,138.4,147.5,138.3z"/>
	</g>
	<path class="st5" d="M40.9,33.5c0.7,1.1,1.8,2.5,4,5.5l0.3,0.7c-2.2,0.4-3.8-0.1-5.5-0.7c-0.7,0.9-1.6,1.3-2.8,1.6v-3.7h-0.1
	c-0.9,0.5-2,1.3-3.5,0.9c0.6-1.2,0.8-2.8,0.5-2.8h-0.1c-1.3,0.3-2.3,0.9-3.7,0.7c-0.4-0.1-0.2-0.3-0.1-0.4
	c0.3-0.8,0.6-1.6,0.9-2.4c-1.4,0.2-2.6,0.4-3.9-0.1c0.3-0.3,0.8-0.6,1.1-0.9c0.3-0.3,0.4-0.7,0.7-1.1l-0.3-0.3
	c-1.2,0.3-2.4-0.3-3.4-0.7c0.3-0.4,0.6-0.7,1.1-1.1c0.5-0.2,1-0.6,0.8-0.8c-0.1-0.1-0.1-0.3-0.4-0.4c-1.4-0.2-2.8-0.2-3.7-1.1
	l0.4-0.4c1.2-1,1.4-0.9,3.1-0.8c0,0,0.2,0,0-0.3c-0.8-1.2-0.4-3.8-0.5-3.3c-0.3,1.7-3,1.9-2.9,1.3c0-3-1.1-2-1.3-2.7
	c-0.2-0.5,0.3-1.1,1-1.5c1.8-1.1,2.9,1,2.6-0.1c-0.2-0.2-0.2-0.5-0.5-0.7c-1.4-0.3-2.6-0.9-3-1.6c-0.3-0.7-0.2-1.6,0.3-2.4
	c0.2-0.2,0.3-0.3,0.6-0.4c1.5-0.2,2.9,2.7,3.1,2c-0.8-2.3-1.1-4.9,1-5.7c0.4-0.1,1.3-0.2,1.8,0.5c1,1.2-0.1,4.3,0,6.6
	c0.1,2.6,1.6,5.7,2.7,7.6c1,1.4,2.1,2.8,3.5,4.2c1.3,1,3.3,2.3,4.6,2.6c0.2,0.4,0.5,1.1,0.7,1.6C40.3,33.1,40.5,33.2,40.9,33.5"
	/>
	<path class="st5" d="M42.2,20.2c0.4,0.2,0.8,0.4,1.1,0.6c-1.2,2.6-2.1,5.4,1.2,7.8c0.7,0.5,1.5,0.8,2.1,0.9
	c0.4,0.8,2.5,1.3,3,0.6c0.7-0.1,1.4-0.3,2.2-0.4c2.3-1,3.4-3.1,3.4-5.7c1.5-0.1,1.9-0.7,2.7-1.5l0.3,0.4c0.6,1.1,0,3-0.5,3.8
	c-0.4-0.4-0.8-0.8-1.2-1.2h-0.1c0.4,1.3,1.2,2.5,0.7,3.9l-0.3-0.1c-0.2-0.7-0.5-1-1.2-1.2v0.1c0.8,1.4,1.8,4,0,5.4h-0.1
	c0-1.4-0.6-2.4-1.4-3l-0.3,0.3c0.4,0.9,1.4,3.1,0.8,4.2c-1.1-0.8-2.3-2-3.4-2.8l0.5,1.1c0.7,1.1,1.4,2.5-0.2,4.9
	c-0.9-2.7-4.4-4.6-5.1-6.1c-0.1,2.6,3.3,4.5,0.6,8.2l-0.3-0.1c-0.7-2.3-2.6-3.5-3.8-5.4c-0.8-1.3-1.2-2.3-0.7-4.4l-0.5,0.2
	c-0.3,0.5-0.6,1.2-0.9,1.6c-0.4-0.2-0.4-0.5-0.5-0.8c-0.4-1.7,0.7-2.3,1.1-3.7l0.1-0.5c0,0-0.1-0.4-0.4,0.4
	c-0.3,0.6-0.4,0.9-1,1.2v-0.8c0.3-0.6,0.5-1.2,0.6-2.1l-0.3,0.1l-0.2,0.4c-0.1,0.3-0.3,0.5-0.4,0.8c-0.2,0.4-0.4,0.5-0.4,0.4
	c-0.7-1.6,1.1-3.5,1.6-4.5c0.1-0.4,0-0.3-0.1-0.1c-0.6,0.7-1.2,1.5-1.9,2.1l-0.3-0.1c0-0.4,0-0.9,0.1-1.2c0.6-1.8,1-2.8,2.4-4.1
	c0.2-0.1,0-0.3-0.3-0.3c-0.7,0.2-1.7,0.8-2.4,1c0-0.2,0.1-0.8,0.3-1.2c0.4-0.6,0.8-1.2,1.3-1.6h0.5l0.6-1
	c-0.1-0.5,0.3-0.7,0.3-1.2c-0.9-1.9,0.7-4.2-0.1-6.7c1.3,0.5,2.5,1.7,2.6,1.8c0-1.1,0.6-2.8,1-3.5c0.3,0.2,0.6,0.6,0.8,1.1
	c0.3,0.5,0.6,1,0.9,1.5c0.2-0.5,0.3-1.3,0.6-1.8c0.4-0.8,0.9-1.6,1.3-2.4c0.4,0.9,0.8,2.3,1.2,3.2c0.5-0.2,0.1-0.4,0.4-0.8
	c0.2-1.1,0.6-1.6,0.9-2.3c0.5,0.8,0.9,2.5,1.1,3.8h0.1l0.3-0.1c0.4-0.8,0.7-1.4,1.1-1.8c1.3,1.3,0.8,3.6,1.1,3.7
	c0.5,0,1.1-1.1,1.5-1.5c0.7,0.8,0.3,2.6,0.7,3.1l0.4-0.2c0.9-0.8,1.7-1.4,2.9-0.8c-0.2,2.3-0.5,6.2-1.7,6.8
	c-0.2,0.2-0.9-0.4-1.2-0.4c1.3,2.4,0.4,5.2-2.3,5.3c-0.4-0.2-0.8-0.5-1.2-0.7c-0.2-0.1-0.4,0-0.3,0.3c1.8,3-1,6.1-3.7,6.2
	l-0.3-0.1c0-0.3,0.1-0.5,0.1-0.8c2.3-0.1,3.9-2.8,3-5.3h-0.1c-0.4,1.1-0.7,1.7-2.3,1.6c-0.4-0.3-0.8-0.6-1.2-0.9
	c0.1-1.9,1.4-1.7,2.4-2.6v-3.1c1.7,1.2,3.9,0.4,4.8-0.9c0.6-1.6,0-1.4-0.1-1.1c-0.7,1.8-3.8,2.4-4.4,1v-0.7l0.1-0.3
	c0.8-0.3,2.1-0.5,3-0.4c0.8,0.1,1.4,0,1.6,0.7c0.3-0.7,1.4-0.7,1.4-1.9c-0.6,1.1-2.1,0.8-3.5,0.8c-1.2,0-2.6,0.2-2.7-0.1
	c-0.1-0.4-0.2-1.1-0.3-1.5l-0.3,0.5C51,16.2,51,18,50.8,20c-1-0.4-2-0.8-3.4-0.5v-0.1c0.6-2,1.3-4.1,1.9-6.1
	c0-0.3-0.2-0.3-0.3-0.1c-0.2,0.6-0.3,1.1-0.8,1.2h-0.1c-0.9,0-1.4-1.1-2.1-1.4c-0.7-0.2-1.3-0.2-2-0.3c-0.4-0.2-0.7-1.1-1-1.6
	c-0.2-0.3-0.3-0.1-0.1,1c0.3,0.9,1.2,1.3,1.2,1.3s0,1.2,0.4,1.9c0.7,1.2,2,1.2,3.1,2c-0.3,0.8-0.9,1.9-0.7,2.7
	c0.6,1.3,1.7,1.9,1.5,3.7c-0.5,0.2-0.8,0.4-1.6,0.4c-1-0.4-1.7-0.7-2.2-1.6c-0.5-0.8-0.1-1.9,0.3-2.6l-0.3-0.3
	c-0.5,0.1-1.1,0.2-1.6,0.3c-1-0.2-1.7-1.2-2-2.5l-0.4-0.3c0,0-0.3,0.8,0.1,1.5C41.3,19.2,42,20.1,42.2,20.2"/>
	<path class="st9" d="M30.8,11c1,0,1,0.3,1.6,0.7c1.1,1.3-1.2,2.7-2.1,6.8c-0.1,0.3-0.2,0.6-0.2,0.6l-0.2-0.5
	c-0.6-2.5-0.1-4.6,0-7.2C29.8,11.1,30.5,11,30.8,11"/>
	<path class="st9" d="M30.8,11c1,0,1,0.3,1.6,0.7c1.1,1.3-1.2,2.7-2.1,6.8c-0.1,0.3-0.2,0.6-0.2,0.6l-0.2-0.5
	c-0.6-2.5-0.1-4.6,0-7.2C29.8,11.1,30.5,11,30.8,11"/>
	<path class="st10" d="M87.8,3.7c1.5,0.9,0.1,3.9-0.3,4.9c1.7-0.5,2.9-1.5,5.1-1.9c3.1-0.5,6,1.2,9.2,0.4c3-0.7,5.8-3.6,9.3-1.9
	L111,5.5c-3.4,0.6-5.4,3.9-8.4,5.1c-2.5,1-5.8,0.2-8.3,0.3l0.2,0.2c3.6,1.5,3.2,3.3,5.1,4.7l-0.7,0.3c-1.6,0.8-4.2,0.1-5.7-0.5
	c-1.7-1-3.3-2.1-5-3.1c-4.5-2.5-18.3-2.1-20,2.6c-1.2,2.9,2.3,4.4,6.8,4c3.5-0.3,7.3-1.1,8.7-1V18l-0.3-0.4
	c-0.3-0.1-0.5-0.3-0.8-0.4l0.1-0.3c1.6-0.3,2.4,0.3,3.8,0.7c0.3-1,0.6-1.9,1.4-2.4c1.4,0.3,3.5,1.8,4.5,1.1
	c1.8,0.9,6.1,2.5,8.5-0.4c-0.8-0.3-2.4-1.6-2.6-2.6c1.6,0.3,3.3,1.8,5.1,1.9l0.3-0.4c0-0.5-0.1-1.2-0.1-1.7
	c0.1-0.3,0.3-0.4,0.8-0.1c1.4,0.9,3.7,2,5.8,1.6c0.1-1.1-1.1-1.7-1-3c0.9,0.5,4.7,2.4,5.3,2c0-0.7-0.4-1.6-0.5-2.2l0.9,0.7
	c0.7,0.6,1.4,1.3,2.2,1.9h0.3c0.5-1.2,0.8-2.5,1.4-3.5c0.4-0.3,0.3,0.3,0.4,0.4c0.7,1.8,2,3.4,3.5,4.1c1-1.1-0.1-2.7,2.3-4.6
	l-0.4,1.3c0,2.5,0.1,3.9,1.6,5.1c1.4-0.3,1.3-1.5,2.2-2.3c1.4-1.5,4.7-0.5,6.3-3c-1.4,4.2-4,3.6-5.1,5.3c-1,1.5-0.1,2.5-0.6,4.8
	c-0.2,1.1-1,1.7-1.5,2.6h0.1c1.6-0.7,2.5-2.3,3.9-3c2-1,5.4,0.5,8.2-0.8c-2.4,4.4-4.9,2.8-8,3.7c-1.4,0.4-2,1.2-3.1,1.8
	c-1.6,0.8-3.8,1.1-5.8,1.5c-4.5,0.8-11.1-0.7-14.3-0.8l0.1,0.7c2.4,3,5.2,4.7,10,5.4c6.3,0.9,13.7-6.3,18.1-0.4l-0.3,0.3
	c-0.3-0.1-0.6-0.2-0.9-0.3l-0.3,0.3c1,1.9,3.3,1.7,3.5,4.7l-0.1,0.3c-0.5-0.2-1.1-0.4-1.6-0.5l-0.1,0.1c0.6,1.1,1.7,2.3,1.8,3.4
	c-0.5-0.1-1-0.2-1.5-0.3c0,0.5-0.1,1-0.1,1.5l0.7,0.1c0.2,0.1,0.7,0.2,1.1,1.1c-1.6,0.6-1.5,1.3-1.9,2.6
	c-1.1-0.1-1.2-0.5-1.8-1.1l-0.3,0.1c-0.3,1.7-0.8,2.8-1.8,3.8c-1.1-0.3-1.4-0.9-2.8-0.3c-0.3-0.2-0.2-0.5-0.2-0.7
	c0.2-1,0.5-1.4,0.9-2.1l0.2-0.3c0.2-0.2,0.2-0.5-0.1-0.3c-0.3,0.3-0.6,0.5-1,0.8c-0.4,1.4-0.8,2.6-2.6,2.7
	c-1.1-0.6-1.2-1.8-2.2-2.6l0.1-0.3c1.7-0.7,3.4-1.4,5.1-2c1-3.4,0.1-5.3-2.2-6.2c-5-1.9-18.7,2-24.9,0.4c-2.6-0.7-6-2.9-7-5.1
	c-0.3-0.7-0.4-1.9,0-2.9c0.1-0.3-0.3-0.3-0.4-0.2c-0.2,0.4-0.4,0.8-0.5,1.2l-3.9-0.8c-6.1-0.2-10.4,2.1-13.3,3.4
	c-5.8,2.6-9.5,7-21.1,5.4c-0.4-0.2-0.6-0.1-0.7,0c0.1,2.3,1.5,2.6,1.6,5c-0.8,1.4-2.1,2-3.4,2.7c-0.3,0.2-0.5-0.4-0.7-1l-0.3,0.4
	c0.2,1.9-1,2.6-2.3,3.4c-0.3,0.2-0.4,0.2-0.5-0.7c-0.4-0.7-0.7-0.9-1.1-1.6c-0.2-0.3-0.4-0.3-0.3,0.1c-0.1,1.4-0.9,2.1-1.9,2.6
	c-0.4,0.3-0.6,0.3-0.5-0.1c-0.1-1.2-0.6-2-1.6-2.3c-0.2,1.7-1.3,2.3-2.6,2.8c-0.4,0.2-0.5,0.1-0.4-0.4c0.2-0.9,0.1-2.3-0.8-2.5
	c-0.3,1.6-2.1,2.8-3.9,2.8c0.2-1.1,0.8-1.7,0.7-3l0.1-0.6c-0.6,1.5-1.7,2.2-3.2,2.9c-0.4,0.1-0.9,0.3-1,0.2
	c0.2-0.1,0.5-1.3,0.9-1.8c0.5-0.6,0.9-0.9,1.4-1.5l-0.3-0.2c-1,0-2.1-0.1-3.1-0.1c0.2,1.3,0,2.1-0.8,2.7c-0.6-0.2-1.1-1.2-2.9-1
	c-0.5-0.5,0-0.5-0.1-1.3c0.4-0.6,0.6-0.7,1-1.3l-0.1-0.1c-1,0.7-5.2,4.3-6.8,1.6c-0.4-0.4-0.4-0.6-0.3-1.2c1-1,2.8-0.9,3.9-1.8
	l-0.1-0.3c-1.5,0-3.3,1-4.1,0.5c-0.7-0.4-0.8-1-1.4-1.5c0-0.8,0-1.3,0.3-1.8l0.4-0.1c5.2,1.7,11.7,4.1,18.7,2.3
	c1.6-0.6,3.2-1.3,4.7-1.9l0.1,0.1c0.1,0.6,0.2,1.2,0.3,1.8l0.4-0.1c1.9-2.5,2.5-2.8,1.7-6.6l0.7,0.7c1.2,1.2,2,1.7,1.1,4
	c2.5-0.5,3.3-3,2.9-5.3c0.2,0.1,0.6,0.3,0.8,0.7c0.2,0.4,0.3,0.9,0.6,1.3l0.6-0.9c0.4-1.7,1.3-0.9,2.1-3.3c0.2-0.5,0-1.5,0.1-1.9
	c0.1-0.3,0.3-0.4,0.4-0.7c0.2-0.7,0.3-1.7,0.2-2.3c0.3-0.3,0.5-0.6,0.7-1.1c0.3-0.7,0.5-1.9,0.5-2.8c3.5,0.4,8,1,11.9,0.9
	c2.7-0.1,5.5-0.4,8.2-0.7c18.4-3.4,23.2-2.8,34.4-0.5c4.5,0.9,12.9,0.8,12.2-3.9c-0.6-4.5-10.7-4.4-15.6-3.2
	c-8.9,2-18.1,3.3-27.4,5c-4.2,0.8-10.3,1.8-14.3,0.1c-4.1-1.7-6.8-6.1-2.8-9.9C70.5,7.1,84.4,9,87.8,3.7"/>
	<path class="st10" d="M94.1,30.7c0.4,0,0.9,0.1,1.2,0.4c-1.3,4.5,3.3,6.5,5.1,8.6c0.2,0.3,0.3,2.1-1,2.3c0.1,2-1,3.5-1.4,3.8
	c-1.3-0.8-2-1.7-2.9-2.4l-0.3,0.3c0.3,1.4-1.2,3.3-2.5,3.6c-0.3-1.2-0.4-2.5-1.1-3.3c-0.6-0.3-0.3,0.1-0.4,0.2
	c-0.2,2.1-1.1,3.2-2.4,4.2c-0.1,0-0.6,0.2-0.5-0.1c-0.4-1.7-1.5-2.7-2.7-3.5l-0.3,0.1c0.1,2.4-0.9,3.4-2.4,4.2l-0.4-0.3
	c-1.3-1.2-0.6-1.5-0.9-2.6c-0.6,0-1,0.1-1.8-0.1c-0.3,0.1-0.1,0.2-0.1,0.3c0.4,0.9,0.4,1.7,0.1,2.7l-0.5,0.4
	c-0.8-0.8-1.9-0.6-2.8-0.5c-0.9-1.4,0-2.4-0.3-2.9c-1.1,0.9-2.8,3.5-5.2,2.5c-0.3-0.2-0.5,0.1-1-0.7c0-1.1,0.3-1.2,0.8-1.8
	c1-0.4,2-0.9,3-1.4v-0.1c-0.5,0-2,0.2-3.4,1c-1.6-0.1-3.9-1.3-2.1-2.8c2.7-1.5,14.2,2.1,20.3-2.6c0.3-0.2,0.2-0.5,0.2-0.6
	c-3.5-2.3-4.6-5.4-1.4-8.8C87.4,30.7,90.4,30,94.1,30.7"/>
	<path class="st5" d="M42.2,20.2c0.4,0.2,0.8,0.4,1.1,0.6c-1.2,2.6-2.1,5.4,1.2,7.8c0.7,0.5,1.5,0.8,2.1,0.9
	c0.4,0.8,2.5,1.3,3,0.6c0.7-0.1,1.4-0.3,2.2-0.4c2.3-1,3.4-3.1,3.4-5.7c1.5-0.1,1.9-0.7,2.7-1.5l0.3,0.4c0.6,1.1,0,3-0.5,3.8
	c-0.4-0.4-0.8-0.8-1.2-1.2h-0.1c0.4,1.3,1.2,2.5,0.7,3.9l-0.3-0.1c-0.2-0.7-0.5-1-1.2-1.2v0.1c0.8,1.4,1.8,4,0,5.4h-0.1
	c0-1.4-0.6-2.4-1.4-3l-0.3,0.3c0.4,0.9,1.4,3.1,0.8,4.2c-1.1-0.8-2.3-2-3.4-2.8l0.5,1.1c0.7,1.1,1.4,2.5-0.2,4.9
	c-0.9-2.7-4.4-4.6-5.1-6.1c-0.1,2.6,3.3,4.5,0.6,8.2l-0.3-0.1c-0.7-2.3-2.6-3.5-3.8-5.4c-0.8-1.3-1.2-2.3-0.7-4.4l-0.5,0.2
	c-0.3,0.5-0.6,1.2-0.9,1.6c-0.4-0.2-0.4-0.5-0.5-0.8c-0.4-1.7,0.7-2.3,1.1-3.7l0.1-0.5c0,0-0.1-0.4-0.4,0.4
	c-0.3,0.6-0.4,0.9-1,1.2v-0.8c0.3-0.6,0.5-1.2,0.6-2.1l-0.3,0.1l-0.2,0.4c-0.1,0.3-0.3,0.5-0.4,0.8c-0.2,0.4-0.4,0.5-0.4,0.4
	c-0.7-1.6,1.1-3.5,1.6-4.5c0.1-0.4,0-0.3-0.1-0.1c-0.6,0.7-1.2,1.5-1.9,2.1l-0.3-0.1c0-0.4,0-0.9,0.1-1.2c0.6-1.8,1-2.8,2.4-4.1
	c0.2-0.1,0-0.3-0.3-0.3c-0.7,0.2-1.7,0.8-2.4,1c0-0.2,0.1-0.8,0.3-1.2c0.4-0.6,0.8-1.2,1.3-1.6h0.5l0.6-1
	c-0.1-0.5,0.3-0.7,0.3-1.2c-0.9-1.9,0.7-4.2-0.1-6.7c1.3,0.5,2.5,1.7,2.6,1.8c0-1.1,0.6-2.8,1-3.5c0.3,0.2,0.6,0.6,0.8,1.1
	c0.3,0.5,0.6,1,0.9,1.5c0.2-0.5,0.3-1.3,0.6-1.8c0.4-0.8,0.9-1.6,1.3-2.4c0.4,0.9,0.8,2.3,1.2,3.2c0.5-0.2,0.1-0.4,0.4-0.8
	c0.2-1.1,0.6-1.6,0.9-2.3c0.5,0.8,0.9,2.5,1.1,3.8h0.1l0.3-0.1c0.4-0.8,0.7-1.4,1.1-1.8c1.3,1.3,0.8,3.6,1.1,3.7
	c0.5,0,1.1-1.1,1.5-1.5c0.7,0.8,0.3,2.6,0.7,3.1l0.4-0.2c0.9-0.8,1.7-1.4,2.9-0.8c-0.2,2.3-0.5,6.2-1.7,6.8
	c-0.2,0.2-0.9-0.4-1.2-0.4c1.3,2.4,0.4,5.2-2.3,5.3c-0.4-0.2-0.8-0.5-1.2-0.7c-0.2-0.1-0.4,0-0.3,0.3c1.8,3-1,6.1-3.7,6.2
	l-0.3-0.1c0-0.3,0.1-0.5,0.1-0.8c2.3-0.1,3.9-2.8,3-5.3h-0.1c-0.4,1.1-0.7,1.7-2.3,1.6c-0.5-0.1-0.9-0.5-1.2-0.9
	c0.1-1.9,1.4-1.7,2.4-2.6v-3.1c1.7,1.2,3.9,0.4,4.8-0.9c0.6-1.6,0-1.4-0.1-1.1c-0.7,1.8-3.8,2.4-4.4,1v-0.7l0.1-0.3
	c0.8-0.3,2.1-0.5,3-0.4c0.8,0.1,1.4,0,1.6,0.7c0.3-0.7,1.4-0.7,1.4-1.9c-0.6,1.1-2.1,0.8-3.5,0.8c-1.2,0-2.6,0.2-2.7-0.1
	c-0.1-0.4-0.2-1.1-0.3-1.5l-0.3,0.5C51,16.2,51,18,50.8,20c-1-0.4-2-0.8-3.4-0.5v-0.1c0.6-2,1.3-4.1,1.9-6.1
	c0-0.3-0.2-0.3-0.3-0.1c-0.2,0.6-0.3,1.1-0.8,1.2h-0.1c-0.9,0-1.4-1.1-2.1-1.4c-0.7-0.2-1.3-0.2-2-0.3c-0.4-0.2-0.7-1.1-1-1.6
	c-0.2-0.3-0.3-0.1-0.1,1c0.3,0.9,1.2,1.3,1.2,1.3s0,1.2,0.4,1.9c0.7,1.2,2,1.2,3.1,2c-0.3,0.8-0.9,1.9-0.7,2.7
	c0.6,1.3,1.7,1.9,1.5,3.7c-0.5,0.2-0.8,0.4-1.6,0.4c-1-0.4-1.7-0.7-2.2-1.6c-0.5-0.8-0.1-1.9,0.3-2.6l-0.3-0.3
	c-0.5,0.1-1.1,0.2-1.6,0.3c-1-0.2-1.7-1.2-2-2.5l-0.4-0.3c0,0-0.3,0.8,0.1,1.5C41.3,19.2,42,20.1,42.2,20.2"/>
	<path class="st5" d="M40.9,33.5c0.7,1.1,1.8,2.5,4,5.5l0.3,0.7c-2.2,0.4-3.8-0.1-5.5-0.7c-0.7,0.9-1.6,1.3-2.8,1.6v-3.7h-0.1
	c-0.9,0.5-2,1.3-3.5,0.9c0.6-1.2,0.8-2.8,0.5-2.8h-0.1c-1.3,0.3-2.3,0.9-3.7,0.7c-0.4-0.1-0.2-0.3-0.1-0.4
	c0.3-0.8,0.6-1.6,0.9-2.4c-1.4,0.2-2.6,0.4-3.9-0.1c0.3-0.3,0.8-0.6,1.1-0.9c0.3-0.3,0.4-0.7,0.7-1.1l-0.3-0.3
	c-1.2,0.3-2.4-0.3-3.4-0.7c0.3-0.4,0.6-0.7,1.1-1.1c0.5-0.2,1-0.6,0.8-0.8c-0.1-0.1-0.1-0.3-0.4-0.4c-1.4-0.2-2.8-0.2-3.7-1.1
	l0.4-0.4c1.2-1,1.4-0.9,3.1-0.8c0,0,0.2,0,0-0.3c-0.8-1.2-0.4-3.8-0.5-3.3c-0.3,1.7-3,1.9-2.9,1.3c0-3-1.1-2-1.3-2.7
	c-0.2-0.5,0.3-1.1,1-1.5c1.8-1.1,2.9,1,2.6-0.1c-0.2-0.2-0.2-0.5-0.5-0.7c-1.4-0.3-2.6-0.9-3-1.6c-0.3-0.7-0.2-1.6,0.3-2.4
	c0.2-0.2,0.3-0.3,0.6-0.4c1.5-0.2,2.9,2.7,3.1,2c-0.8-2.3-1.1-4.9,1-5.7c0.4-0.1,1.3-0.2,1.8,0.5c1,1.2-0.1,4.3,0,6.6
	c0.1,2.6,1.6,5.7,2.7,7.6c1,1.4,2.1,2.8,3.5,4.2c1.3,1,3.3,2.3,4.6,2.6c0.2,0.4,0.5,1.1,0.7,1.6C40.3,33.1,40.5,33.2,40.9,33.5"
	/>
	<path class="st5" d="M87.8,3.7c1.5,0.9,0.1,3.9-0.3,4.9c1.7-0.5,2.9-1.5,5.1-1.9c3.1-0.5,6,1.2,9.2,0.4c3-0.7,5.8-3.6,9.3-1.9
	L111,5.5c-3.4,0.6-5.4,3.9-8.4,5.1c-2.5,1-5.8,0.2-8.3,0.3l0.2,0.2c3.6,1.5,3.2,3.3,5.1,4.7l-0.7,0.3c-1.6,0.8-4.2,0.1-5.7-0.5
	c-1.7-1-3.3-2.1-5-3.1c-4.5-2.5-18.3-2.1-20,2.6c-1.2,2.9,2.3,4.4,6.8,4c3.5-0.3,7.3-1.1,8.7-1V18l-0.3-0.4
	c-0.3-0.1-0.5-0.3-0.8-0.4l0.1-0.3c1.6-0.3,2.4,0.3,3.8,0.7c0.3-1,0.6-1.9,1.4-2.4c1.4,0.3,3.5,1.8,4.5,1.1
	c1.8,0.9,6.1,2.5,8.5-0.4c-0.8-0.3-2.4-1.6-2.6-2.6c1.6,0.3,3.3,1.8,5.1,1.9l0.3-0.4c0-0.5-0.1-1.2-0.1-1.7
	c0.1-0.3,0.3-0.4,0.8-0.1c1.4,0.9,3.7,2,5.8,1.6c0.1-1.1-1.1-1.7-1-3c0.9,0.5,4.7,2.4,5.3,2c0-0.7-0.4-1.6-0.5-2.2l0.9,0.7
	c0.7,0.6,1.4,1.3,2.2,1.9h0.3c0.5-1.2,0.8-2.5,1.4-3.5c0.4-0.3,0.3,0.3,0.4,0.4c0.7,1.8,2,3.4,3.5,4.1c1-1.1-0.1-2.7,2.3-4.6
	l-0.4,1.3c0,2.5,0.1,3.9,1.6,5.1c1.4-0.3,1.3-1.5,2.2-2.3c1.4-1.5,4.7-0.5,6.3-3c-1.4,4.2-4,3.6-5.1,5.3c-1,1.5-0.1,2.5-0.6,4.8
	c-0.2,1.1-1,1.7-1.5,2.6h0.1c1.6-0.7,2.5-2.3,3.9-3c2-1,5.4,0.5,8.2-0.8c-2.4,4.4-4.9,2.8-8,3.7c-1.4,0.4-2,1.2-3.1,1.8
	c-1.6,0.8-3.8,1.1-5.8,1.5c-4.5,0.8-11.1-0.7-14.3-0.8l0.1,0.7c2.4,3,5.2,4.7,10,5.4c6.3,0.9,13.7-6.3,18.1-0.4l-0.3,0.3
	c-0.3-0.1-0.6-0.2-0.9-0.3l-0.3,0.3c1,1.9,3.3,1.7,3.5,4.7l-0.1,0.3c-0.5-0.2-1.1-0.4-1.6-0.5l-0.1,0.1c0.6,1.1,1.7,2.3,1.8,3.4
	c-0.5-0.1-1-0.2-1.5-0.3c0,0.5-0.1,1-0.1,1.5l0.7,0.1c0.2,0.1,0.7,0.2,1.1,1.1c-1.6,0.6-1.5,1.3-1.9,2.6
	c-1.1-0.1-1.2-0.5-1.8-1.1l-0.3,0.1c-0.3,1.7-0.8,2.8-1.8,3.8c-1.1-0.3-1.4-0.9-2.8-0.3c-0.3-0.2-0.2-0.5-0.2-0.7
	c0.2-1,0.5-1.4,0.9-2.1l0.2-0.3c0.2-0.2,0.2-0.5-0.1-0.3c-0.3,0.3-0.6,0.5-1,0.8c-0.4,1.4-0.8,2.6-2.6,2.7
	c-1.1-0.6-1.2-1.8-2.2-2.6l0.1-0.3c1.7-0.7,3.4-1.4,5.1-2c1-3.4,0.1-5.3-2.2-6.2c-5-1.9-18.7,2-24.9,0.4c-2.6-0.7-6-2.9-7-5.1
	c-0.3-0.7-0.4-1.9,0-2.9c0.1-0.3-0.3-0.3-0.4-0.2c-0.2,0.4-0.4,0.8-0.5,1.2l-3.9-0.8c-6.1-0.2-10.4,2.1-13.3,3.4
	c-5.8,2.6-9.5,7-21.1,5.4c-0.4-0.2-0.6-0.1-0.7,0c0.1,2.3,1.5,2.6,1.6,5c-0.8,1.4-2.1,2-3.4,2.7c-0.3,0.2-0.5-0.4-0.7-1l-0.3,0.4
	c0.2,1.9-1,2.6-2.3,3.4c-0.3,0.2-0.4,0.2-0.5-0.7c-0.4-0.7-0.7-0.9-1.1-1.6c-0.2-0.3-0.4-0.3-0.3,0.1c-0.1,1.4-0.9,2.1-1.9,2.6
	c-0.4,0.3-0.6,0.3-0.5-0.1c-0.1-1.2-0.6-2-1.6-2.3c-0.2,1.7-1.3,2.3-2.6,2.8c-0.4,0.2-0.5,0.1-0.4-0.4c0.2-0.9,0.1-2.3-0.8-2.5
	c-0.3,1.6-2.1,2.8-3.9,2.8c0.2-1.1,0.8-1.7,0.7-3l0.1-0.6c-0.6,1.5-1.7,2.2-3.2,2.9c-0.4,0.1-0.9,0.3-1,0.2
	c0.2-0.1,0.5-1.3,0.9-1.8c0.5-0.6,0.9-0.9,1.4-1.5l-0.3-0.2c-1,0-2.1-0.1-3.1-0.1c0.2,1.3,0,2.1-0.8,2.7c-0.6-0.2-1.1-1.2-2.9-1
	c-0.5-0.5,0-0.5-0.1-1.3c0.4-0.6,0.6-0.7,1-1.3l-0.1-0.1c-1,0.7-5.2,4.3-6.8,1.6c-0.4-0.4-0.4-0.6-0.3-1.2c1-1,2.8-0.9,3.9-1.8
	l-0.1-0.3c-1.5,0-3.3,1-4.1,0.5c-0.7-0.4-0.8-1-1.4-1.5c0-0.8,0-1.3,0.3-1.8l0.4-0.1c5.2,1.7,11.7,4.1,18.7,2.3
	c1.6-0.6,3.2-1.3,4.7-1.9l0.1,0.1c0.1,0.6,0.2,1.2,0.3,1.8l0.4-0.1c1.9-2.5,2.5-2.8,1.7-6.6l0.7,0.7c1.2,1.2,2,1.7,1.1,4
	c2.5-0.5,3.3-3,2.9-5.3c0.2,0.1,0.6,0.3,0.8,0.7c0.2,0.4,0.3,0.9,0.6,1.3l0.6-0.9c0.4-1.7,1.3-0.9,2.1-3.3c0.2-0.5,0-1.5,0.1-1.9
	c0.1-0.3,0.3-0.4,0.4-0.7c0.2-0.7,0.3-1.7,0.2-2.3c0.3-0.3,0.5-0.6,0.7-1.1c0.3-0.7,0.5-1.9,0.5-2.8c3.5,0.4,8,1,11.9,0.9
	c2.7-0.1,5.5-0.4,8.2-0.7c18.4-3.4,23.2-2.8,34.4-0.5c4.5,0.9,12.9,0.8,12.2-3.9c-0.6-4.5-10.7-4.4-15.6-3.2
	c-8.9,2-18.1,3.3-27.4,5c-4.2,0.8-10.3,1.8-14.3,0.1c-4.1-1.7-6.8-6.1-2.8-9.9C70.5,7.1,84.4,9,87.8,3.7"/>
	<path class="st5" d="M94.1,30.7c0.4,0,0.9,0.1,1.2,0.4c-1.3,4.5,3.3,6.5,5.1,8.6c0.2,0.3,0.3,2.1-1,2.3c0.1,2-1,3.5-1.4,3.8
	c-1.3-0.8-2-1.7-2.9-2.4l-0.3,0.3c0.3,1.4-1.2,3.3-2.5,3.6c-0.3-1.2-0.4-2.5-1.1-3.3c-0.6-0.3-0.3,0.1-0.4,0.2
	c-0.2,2.1-1.1,3.2-2.4,4.2c-0.1,0-0.6,0.2-0.5-0.1c-0.4-1.7-1.5-2.7-2.7-3.5l-0.3,0.1c0.1,2.4-0.9,3.4-2.4,4.2l-0.4-0.3
	c-1.3-1.2-0.6-1.5-0.9-2.6c-0.6,0-1,0.1-1.8-0.1c-0.3,0.1-0.1,0.2-0.1,0.3c0.4,0.9,0.4,1.7,0.1,2.7l-0.5,0.4
	c-0.8-0.8-1.9-0.6-2.8-0.5c-0.9-1.4,0-2.4-0.3-2.9c-1.1,0.9-2.8,3.5-5.2,2.5c-0.3-0.2-0.5,0.1-1-0.7c0-1.1,0.3-1.2,0.8-1.8
	c1-0.4,2-0.9,3-1.4v-0.1c-0.5,0-2,0.2-3.4,1c-1.6-0.1-3.9-1.3-2.1-2.8c2.7-1.5,14.2,2.1,20.3-2.6c0.3-0.2,0.2-0.5,0.2-0.6
	c-3.5-2.3-4.6-5.4-1.4-8.8C87.4,30.7,90.4,30,94.1,30.7"/>
	<path class="st11" d="M52.9,15.9c0,0-0.3,1,0.4,1.3c0.8,0.3,1.3,0,1.6-0.6c0.2-0.6,0.2-1.3-0.7-1.3
	C53.4,15.5,53.2,15.5,52.9,15.9"/>
	<path class="st11" d="M47.8,14.8c0,0-0.3,1.4-1.4,0.9c-1.2-0.5-0.6-1.6-0.5-2.1C46.1,13.1,47.8,14.4,47.8,14.8"/>
	<path class="st12" d="M130.3,32c0,0,1.2-0.4,1.6-0.1c0.4,0.3,0.9,0.7,0.9,1.1s0.3-0.3,0.4-0.6c0.1-0.3-0.7-1.4-1.6-1.3
	C130.6,31.4,130.1,31.7,130.3,32"/>
	<path class="st13" d="M39.6,32.9c0,0-1-0.7-1.7-1.4c-0.7-0.7-0.6-0.4-1.2-0.6c-0.5-0.2,0.2,0.6,0.2,1.3c0,0.7-0.6,2.1-1.4,2.5
	c-0.5,0.2-1.8-1.7-2.3-1.4c-0.5,0.3,2.7,3.6,5.7,4.7C41.9,39.1,40.7,33.7,39.6,32.9"/>
	<path class="st14" d="M39.4,32.6c0,0,1.1,0.2,1.8,1c0.7,0.8,2.1,4.6,2.1,4.6s-0.6,2.1-5.6-0.7c-0.7-0.6,1.3-0.3,1.7-1
	c0.4-0.7,1.1-1.9,0.1-3.3C39.1,32.7,39.4,32.6,39.4,32.6"/>
	<path class="st15" d="M41.1,33.6c0,0,0.5,2,1.1,3.1c0.5,1.1-1.1,1.2-1.8,1.2c-0.7,0,0.1,0.8,0.8,1.1c0.7,0.3,2.8,0.8,3.4,0
	C45.3,38.2,41.1,33.6,41.1,33.6"/>
	<path class="st9" d="M30,11.8c0,0,1.2,0.1,1,0.6c-0.1,0.5-0.7,3.7-0.4,4.4c0.2,0.7,2.1-3,2.3-3.9c0.1-0.9-0.5-2.3-1.8-2.2
	C29.7,10.8,29.3,11.7,30,11.8"/>
	<path class="st9" d="M29,14.3c0,0-0.7,1.1-0.9-0.2c-0.2-1.3,0.3-3.5-0.3-3.4c-0.6,0.1-1.1-0.1-1.1,1.2s0.1,3.5-0.7,3.3
	c-0.8-0.1-1.1-1.9-0.9-2.9c0.2-1.1,0.3-2.9,2.4-2.9C29.5,9.5,29.3,12.5,29,14.3"/>
	<path class="st9" d="M25.3,15.6c0,0-0.4,1.9-1.2,0.4c-0.8-1.5-1.2-1.9-1.3-1c-0.1,0.9,0.1,1.5,0.1,1.8s-1.4,0.4-1.5-0.4
	c-0.1-0.8,0-2.1,0.4-2.8C22.3,13.1,24.5,13,25.3,15.6"/>
	<path class="st9" d="M25.3,19.8c0,0-1.2-1.4-2.4-0.5c-1.2,0.9,0.2,1,0.5,1.9c0.3,0.9,0.9,0.8,0.9,0.2s-1.2-1-0.8-1.4
	S25.4,21,25.3,19.8"/>
	<path class="st9" d="M26.2,25.7c0,0-1.5-0.5-2.2-0.1s-0.9,0.8-0.3,0.9s0.9-0.4,1.7-0.3C26.2,26.3,26.8,26.1,26.2,25.7"/>
	<path class="st9" d="M27.5,28.3c0,0-1.3,0.4-1.9,1c-0.7,0.5-0.2,0.8,0.9,1.1c1,0.3,0.2-0.4,0.9-1.1C28,28.6,27.8,28.1,27.5,28.3"
	/>
	<path class="st9" d="M29.4,31.6c-0.5-0.2-2,0.7-2.3,1.2c-0.4,0.4,0.5,0.2,1.4-0.2C29.4,32.2,30.2,31.8,29.4,31.6"/>
	<path class="st9" d="M31.8,34.1c0,0-0.7-0.2-1.2,0.5c-0.5,0.8-0.7,1-0.4,1.2c0.3,0.2,0.8-0.1,1-0.6
	C31.4,34.9,32.3,34.4,31.8,34.1"/>
	<path class="st9" d="M34.8,35.9c0,0-0.7,0.1-1.1,0.9c-0.5,0.9-0.1,1.1,0.4,0.9C34.6,37.5,35.4,35.8,34.8,35.9"/>
	<path class="st9" d="M37.5,38.5c0,0,0.1,0.3-0.5,0.7c-0.6,0.4,0.3,0.3,0.9-0.3C38.3,38.6,37.8,38,37.5,38.5"/>
	<path class="st9" d="M40.3,18.5c0,0-1.3,0.7-1.6,1.6c-0.4,0.9,1.1-0.3,1.5-0.5C40.6,19.2,40.9,18.2,40.3,18.5"/>
	<path class="st9" d="M40.2,21.6c0,0-1,1.3-1.1,2.3s0.2,0.4,0.8-0.5c0.6-1,0.6-0.9,0.8-1.3C40.9,21.7,40.6,21.1,40.2,21.6"/>
	<path class="st9" d="M40.1,26.5c0,0,0.2-1.2,0.7-1.6s0.6,0.4,0.3,1.1c-0.3,0.8-0.5,1.6-0.8,1.9C39.9,28.2,40.1,26.9,40.1,26.5"/>
	<path class="st9" d="M41.4,27.7c0,0,0.5-0.5,0.6,0c0.1,0.4-0.5,1.5-0.7,2.2s-0.8,1.5-1,0.4s0.2-1,0.4-1.5
	C41,28.3,41.1,28,41.4,27.7"/>
	<path class="st9" d="M41.9,30.9c0,0,0.5-0.9,1-0.5s0.1,1.3,1,3s2.4,3.9,2.9,4.5s0.6,0.5,0.4,1.4s-0.6,1-1.1,0.2s-3-3.7-3.5-4.5
	C42,34.3,41.1,31.8,41.9,30.9"/>
	<path class="st9" d="M47.7,33.2c0,0,2.2,1.8,2.8,2.9c0.7,1.1,0.9,1.6,1.3,1.2c0.3-0.4-0.5-1.6-1.6-2.7
	C49,33.5,47.4,32.2,47.7,33.2"/>
	<path class="st9" d="M52,32c0,0,1.4,1,1.7,1.7c0.3,0.6,0.6-0.1,0.2-0.6C53.4,32.5,51.7,31.2,52,32"/>
	<path class="st9" d="M56.4,29.6c0,0-0.5-0.7-1.1-0.8c-0.6-0.1-0.1,0.4,0.2,0.9c0.3,0.5,0.4,1.1,0.4,1.7s0.5,1.1,0.8,0.1
	C56.9,30.5,56.4,29.6,56.4,29.6"/>
	<path class="st9" d="M56.6,26.3c0,0-0.4-0.7-1,0.2c-0.1,0.2,0.7,1.1,0.8,1.9c0.1,0.8,0.8,0.3,0.9-0.5
	C57.2,27,56.6,26.3,56.6,26.3"/>
	<path class="st9" d="M57.2,23.6c0,0,0.2,0.6,0,1.3c-0.2,0.7,0.7,1.2,0.8,0.3C58,24.1,57.9,23.5,57.2,23.6"/>
	<path class="st9" d="M56.4,18.1c0,0,0.7,1.6,0.2,2.6s0.4,0.6,0.7,0C58.2,18.9,56.1,17.7,56.4,18.1"/>
	<path class="st9" d="M45.8,20c0,0-0.9,0.4-0.9,1.5c0.1,1.1,0.9,2,2,2s0.9-0.6,0.2-0.7c-0.6-0.1-1.4-0.7-1.3-1.7
	C46,20.2,46.2,19.8,45.8,20"/>
	<path class="st9" d="M43.7,19.1c0,0-2.2,0-2.3-1.7c-0.1-1.7,0.5-1.6,0.8-1.9c0.3-0.2,0.7,0.2,0.3,0.7c-0.4,0.5,0.1,2,0.8,2.1
	C44,18.5,44.5,18.9,43.7,19.1"/>
	<path class="st9" d="M41.3,14.3c0,0,1,1.3,1.1,0.4c0.1-0.9-0.7-1.4-0.4-2.6c0.3-1.2,0.1-2,0.6-1.4c0.5,0.5,1.1,0.2,0.8-0.5
	c-0.3-0.7-2-2.3-2.2-1.4C41,9.7,40.7,13.6,41.3,14.3"/>
	<path class="st9" d="M44.2,9.9c0,0,0.8,1.1,1,0.2c0.3-0.9,0.6-1,0.9-0.7S45.6,7,44.9,7.2C44.3,7.4,44.2,9.9,44.2,9.9"/>
	<path class="st9" d="M47.5,9.3c0,0,0.6-1.5,0.8-1.1c0.2,0.4,0.5,0.3,0.3-0.7c-0.2-0.9-0.2-1.8-0.6-1.2
	C47.6,6.9,46.9,9.4,47.5,9.3"/>
	<path class="st9" d="M50.3,8.8c0,0,0.6-0.4,0.8-0.1c0.2,0.3,0.6,0.5,0.6-0.3s-0.5-2.2-1.1-1.1C50,8.3,50.1,8.4,50.3,8.8"/>
	<path class="st9" d="M52.7,9.4c0,0,0.8,0.1,1-0.1C54,9.1,53.8,9.7,54,10c0.2,0.2,0.7-1.1,0.2-2.2C53.8,6.7,52.6,8.7,52.7,9.4"/>
	<path class="st9" d="M55.1,11.2c0,0,0.3,0.3,0.6,0.6c0.3,0.3,0.9,1.2,1,0.1c0.1-1.1-0.9-2.2-1.1-1.7
	C55.4,10.7,55.1,11.2,55.1,11.2"/>
	<path class="st9" d="M57.5,13c0,0,1.2-1.1,1.9-0.9c0.7,0.2,1.7,0,1.2-0.6c-0.4-0.6-2.3-0.5-2.6-0.1C57.6,12,57.3,12.8,57.5,13"/>
	<path class="st9" d="M49.2,14.3c0,0,0.8-1.3,1.1-0.3c0.3,1-0.5,1.8-0.8,3.1s-0.9,1.1-0.3,1.3s1,0.6,0.1,0.5s-1.9,0.7-1.4-0.3
	C48.3,17.6,48.5,15.1,49.2,14.3"/>
	<path class="st9" d="M98.1,34.2c0,0-2.5-4.6-0.8-5.7c0.6-0.4,0.2,2,1.9,4.3c1.6,2.3,4.9,4.2,9.1,4.1c4.2,0,4.8,0.3,1.9,0.8
	C107.3,38.3,101.2,39.5,98.1,34.2"/>
	<path class="st9" d="M109.6,28.2c0,0-1.8-1.8-3.2-2s-1.1,0.6,0,1.2s4.9,4.9,9.3,5.8c4.4,0.9,11.7-0.9,14.3-1.7
	c2.6-0.8,2.7,0,3.2,0.8c0.4,0.8,0.9,0,0.3-1.7c-0.5-1.6-2.3-1.4-7.2,0.2s-7.5,1.6-11,0.3C112,29.9,112,29.2,109.6,28.2"/>
	<path class="st9" d="M134.9,30.6c0,0,1-0.5,1.8,1c0.3,0.4,0.1,0-1,0C134.5,31.6,134.3,30.7,134.9,30.6"/>
	<path class="st9" d="M135.8,34.7c0,0,1.5,0.8,2,1.4c0.5,0.5,0.9-0.2-0.2-1.2S135.5,34,135.8,34.7"/>
	<path class="st9" d="M136.7,38.2c0,0,1.2,0.4,1.7,1.3s1.2,1,0.6-0.1c-0.3-0.5-1.1-1.4-1.7-1.8C136.7,37.2,136.2,38,136.7,38.2"/>
	<path class="st9" d="M137.2,40.8c0,0-1.1,0.4-0.3,1c0.8,0.7,1.5,0.5,1.1,1.2s0.9-0.1,1.2-0.3c0.2-0.1-0.4-0.9-0.9-1.4
	C137.8,41,137.7,40.6,137.2,40.8"/>
	<path class="st9" d="M131.2,41c0,0,0.6-1.7,0.9-0.1c0.3,1.5,0,2.6-1.6,3.8c-1.7,1.2-3,1.5-4,1.4s-1.7-0.4,0-0.8s2.9-0.6,3.6-1.5
	C130.8,42.8,131.3,42.4,131.2,41"/>
	<path class="st9" d="M127.4,43.8c0,0-1.4,0.3-2.3,0c-0.8-0.2-1.4,0-1.4,0.7c0,0.6-0.5,0.5-0.7-0.2c-0.1-0.8,0.1-1.9,0.8-2
	S126.2,42.8,127.4,43.8"/>
	<path class="st9" d="M131,45.2c0,0,0.4-0.6,0.9-0.9s0.7,0.1,0.3,0.8c-0.4,0.7-1.2,1.3-0.9,1.9s0.5,0.5-0.2,0.9s-1.4,0.3-1-0.7
	C130.6,46.3,131,45.2,131,45.2"/>
	<path class="st9" d="M60.8,25.6c0,0,4.3,1.7,12.8,0.6s14.6-2.5,24-2.5c9.4,0,18.5,2.5,22.2,2.3c3.6-0.2,0.7-1.5-3.6-2
	s-18.4-3.4-30.8-0.9S65.3,25.3,62.3,25C59.3,24.7,60.8,25.6,60.8,25.6"/>
	<path class="st9" d="M68.2,16.7c0,0-0.3,2.8,4.5,3.5s8.2-0.3,9.1-0.6c0.9-0.3,0.8-0.9-1.9-0.9s-5.6,1-8-0.1
	C69.5,17.7,68.2,16.7,68.2,16.7"/>
	<path class="st9" d="M65.1,15.5c0,0,0.9-3.1,5.2-4.5c4.3-1.5,13.5-2.3,16-3.5s1.9,0.2,1.9,0.2s0.4,1,2.2,0.7
	c1.8-0.2,4-0.9,8.9-0.2c5,0.7,5-0.7,7.5-1.2c2.5-0.6,5.9-1.9,3.5-1.9c-2.4-0.1-6.3,2-10.9,1.5C94.8,6.1,91,6.4,88.8,7.5
	c-2.2,1.1,0.5-0.6,0.2-2.4c-0.3-1.9-0.7,1.2-7.4,2.3C74.8,8.4,64.8,9.8,65.1,15.5"/>
	<path class="st9" d="M83.5,16.9c0,0,0.7,1.2,0.3,1.6c-0.4,0.4,0.5,0.3,0.5-1.1C84.4,16,83.8,16.6,83.5,16.9"/>
	<path class="st9" d="M87.6,17.3c0,0,0.8-0.7,1.7-1.6c0.9-0.9-0.5-1.4-0.9-0.8c-0.4,0.6,0.3,1.3-0.5,1.8
	C87.1,17.2,87.6,17.3,87.6,17.3"/>
	<path class="st9" d="M99.4,13.3l0.4,1.6c0,0-1.9-0.3-1.9-2.1C97.9,11.9,99.4,13.3,99.4,13.3"/>
	<path class="st9" d="M104.8,15.2c0,0,0.4-1.5,0.6-1.9c0.2-0.4-1.6-1.2-1.7-0.7C103.7,13,104.4,15.3,104.8,15.2"/>
	<path class="st9" d="M110.4,14.3c0,0,0.8-1.1,1-1.9c0.2-0.7-2.6-1.6-2-0.6C109.8,12.7,109.8,14.1,110.4,14.3"/>
	<path class="st9" d="M114.2,12.9c0,0,1.5,2.1,1.3,0.8c-0.1-1.2,0.3-2.1-0.6-2.6C114,10.6,114.2,12.9,114.2,12.9"/>
	<path class="st9" d="M119.4,10.3c0,0-1.3,1-1.1,2.5s1,1.6,1.1,0C119.6,11.2,119.4,10.3,119.4,10.3"/>
	<path class="st9" d="M123.9,11.2c0,0-0.9,2.1-0.9,3.2c0,1.1,1,1.7,1.3-0.1s0.7-2.8,0.9-3.8C125.5,9.6,123.9,11.2,123.9,11.2"/>
	<path class="st9" d="M127.3,16.1c0,0-0.4-1.6,2.2-2.7c1.4-0.6,3.7-0.8,3.7-0.8s0.8,0.7-3.1,1.9c-1.5,0.5-2.4,2.6-2.5,3.8
	C127.5,19.4,126.9,17.3,127.3,16.1"/>
	<path class="st9" d="M130,23.9c0,0,0.9-1.3,4.4-1.3c3.6,0,4-0.9,4.8-1.8c0.7-0.8-0.1-0.2-1.5,0.3s-2.9-0.1-5.4,0.6
	C129.8,22.5,130,23.9,130,23.9"/>
	<path class="st9" d="M86.9,30.9c0,0-2,2-1.6,4.3c0.2,1.3,1.4,3.1,2.1,3.4c0.6,0.2,1.2-0.2,0.7-0.9c-0.4-0.8-2.3-0.9-2-4.1
	C86.1,32.3,86.1,32,86.9,30.9"/>
	<path class="st9" d="M95.7,34.5c0,0,4.2,3.9,4.8,4.5c0.5,0.6,0.8,1.5,0.5,2.1c-0.2,0.6-3.4,0.6-2.6-0.7
	C99.3,39.1,95.6,36.1,95.7,34.5"/>
	<path class="st9" d="M69.5,42.3c0,0-1.2,0.7,0.2,1.2c1.3,0.5,8.7,1.1,12.7,0.1s4.8-1.5,6-3.3c-1,0.3-4.7,2.4-15,1.9
	C71.6,42.2,70.2,42.1,69.5,42.3"/>
	<path class="st9" d="M72.5,45.1c0,0,1.7-0.4,1.6,0.2c0,0.6-1.7,1-2.9,2c-1.2,1-1.8,0.4-1.7-0.4C69.7,46.2,70.9,45.3,72.5,45.1"/>
	<path class="st9" d="M76.7,46.4c0,0-0.1,0.3-0.1,1.1c0,0.7,0.1,1.4,0.1,1.4s-0.8,0.4-0.9-1.3C75.8,46.8,76.4,46.4,76.7,46.4"/>
	<path class="st9" d="M86.3,45.3c0,0,0.4-0.4,1.2,0.3c0.8,0.7,1,2.6,0.6,3.2C87.7,46.6,86.3,45.3,86.3,45.3"/>
	<path class="st9" d="M91.4,44.2c0,0,0.1-0.8,0.5,0s1,2.2,0.7,3.2c-0.2,0.4-0.6,0.2-0.9-1.4C91.5,44.4,91.4,44.2,91.4,44.2"/>
	<path class="st9" d="M82.6,46.4c0,0,0.9,0.1,0.7,1.5s-0.5,1.4-1,0.8C81.8,48.1,82,46,82.6,46.4"/>
	<path class="st9" d="M95.4,43.2c0,0,2,2.1,2.5,2.6c0.4,0.5,1.1-0.2,0.7-1S96.9,43.2,95.4,43.2"/>
	<path class="st9" d="M22.4,42.5c0,0,0-1.2,1.2-0.9c1.2,0.3,8.7,2.5,12.4,2.5c3.8,0,7.9-1.2,7.7-2c-0.2-0.8-1.4-0.1-3.2,0.1
	c-1.9,0.2-8.3,0.6-14.7-1.4c-1.7-0.5-3.9-1-3.8,0.3S22.2,42.9,22.4,42.5"/>
	<path class="st9" d="M26.3,43.5c0,0,1.7-0.5,1.9,0.6c0.2,1-3,0.8-3.6,1.6c-0.5,0.8,0.4,1.3,0.2,1.5c-0.3,0.2-1.9-2.1-0.9-2.7
	C25,43.8,25.2,43.7,26.3,43.5"/>
	<path class="st9" d="M36.4,46.3c0,0-0.3,1.6-0.6,2.2c-0.3,0.6-1.5,0.6-1.5,0.6S35,45.9,36.4,46.3"/>
	<path class="st9" d="M38.6,46.9c0,0-0.1-1.2,0.3-0.6s1.5,3-1.3,3.3C38,48,38.6,46.9,38.6,46.9"/>
	<path class="st9" d="M56,39.5c0,0,1,0.7,1.4,1.2s1.7,1.6,0.9,2.6c-0.7,1-2.1,1.7-3.1,1.4c-1-0.2,0.4-0.6,1-1.2
	C57.4,42.2,55.3,39,56,39.5"/>
	<path class="st9" d="M25.6,38.9c0,0-0.1-1.5,0.6-0.6s1.1,1.6,1.6,1.9c0.5,0.4-0.5-0.8-0.8-1.6c-0.3-0.9-1.8-2.1-2.1-1.4
	C24.7,37.9,25,39.8,25.6,38.9"/>
	<path class="st9" d="M42.6,47.4c0,0,0.2-1,0.6-0.3c0.5,0.7,0.4,1.3,0.2,1.9c-0.2,0.6-0.8,0.9-0.8,0.9L42.6,47.4z"/>
	<path class="st9" d="M46.7,47.3c0,0-0.2-1.2,0.3-0.7c0.4,0.5,0.7,1.3,0.4,2.7C46.9,47.8,46.7,47.3,46.7,47.3"/>
	<path class="st9" d="M50.9,46.7c0,0,1,0.1,1.4,1.2c0.3,1.1-0.5,0.5-1-0.3C50.8,46.8,50.5,46.6,50.9,46.7"/>
	<path class="st5" d="M43.7,21.3c0.3-0.9,0.4,0.5,0.3,0.9c-0.1,0.8-0.5,2.1-0.2,3.3c0.5,2,2.3,2.1,2.5,2.8
	c0.1,0.2-0.1,0.3-0.4,0.2C42.7,27.4,42.2,24.5,43.7,21.3"/>
	<path class="st0" d="M46.5,14.2c0,0-0.6-0.1-0.5,0.4s0.3,0.7,0.5,0.4C46.7,14.7,46.8,14.3,46.5,14.2"/>
	<path class="st0" d="M53.4,15.9c0,0-0.5,0.2-0.3,0.8s0.9,0.4,0.9,0C54,16.3,53.9,15.8,53.4,15.9"/>
	<path class="st5" d="M72,39.7c0.1-0.3,0.7-0.4,1.2,0c0.5,0.7,1.6,0.9,1.8,1.8l-0.7,0.2c-0.8,0-2.8,0-3.4-0.4
	C71.3,40.8,71.6,40.3,72,39.7"/>
	<path class="st7" d="M43.7,21.3c0.3-0.9,0.4,0.5,0.3,0.9c-0.1,0.8-0.5,2.1-0.2,3.3c0.5,2,2.3,2.1,2.5,2.8
	c0.1,0.2-0.1,0.3-0.4,0.2C42.7,27.4,42.2,24.5,43.7,21.3 M72,39.7c0.1-0.3,0.7-0.4,1.2,0c0.5,0.7,1.5,0.9,1.8,1.8l-0.7,0.2
	c-0.8,0-2.8,0-3.4-0.4L72,39.7 M81.2,17.5c-3,0.3-11.9,2.6-12.3-1.4c-0.1-0.3,0.2-0.7,0.3-0.7c1.3-2.6,5.8-2.7,9-3.3
	c1.1,0,2.3-0.1,3.4-0.1c1.8,0.5,6.2,0.5,7.3,2.2c-1.7,0.2-2.1,0.9-2.6,2.3c-1.6-0.2-3.9-0.9-5,0.4C81.3,17.3,81.3,17.1,81.2,17.5
	 M137.2,45.4c-1.1-0.1-1.2-0.5-1.8-1.1l-0.3,0.1c-0.3,1.7-0.7,2.8-1.8,3.8c-1.1-0.3-1.4-0.9-2.8-0.3c-0.3-0.2-0.2-0.5-0.2-0.6
	c0.2-1,0.5-1.4,0.9-2.1l0.2-0.3c0.2-0.2,0.2-0.5-0.1-0.3l-0.9,0.8c-0.4,1.4-0.8,2.6-2.6,2.7c-1.1-0.6-1.2-1.8-2.2-2.6l0.1-0.3
	c1.7-0.7,3.4-1.4,5.1-2c1-3.4,0.1-5.3-2.2-6.2c-5-1.9-18.7,2-24.9,0.4c-2.6-0.7-6-2.8-7-5.1c-0.3-0.7-0.4-1.9,0-2.9
	c0.1-0.3-0.3-0.3-0.4-0.2c-0.2,0.4-0.4,0.8-0.5,1.2c-1.3-0.3-2.6-0.5-3.9-0.8c-6.1-0.2-10.4,2.1-13.3,3.4
	c-5.8,2.6-9.5,7-21.1,5.4c-0.4-0.2-0.6-0.1-0.7,0c0.1,2.3,1.5,2.6,1.6,5c-0.8,1.4-2.1,2-3.4,2.7c-0.3,0.2-0.5-0.4-0.7-1L54,45.5
	c0.2,1.9-1,2.6-2.3,3.4c-0.3,0.2-0.4,0.2-0.5-0.7c-0.4-0.7-0.7-0.9-1.1-1.6c-0.2-0.3-0.4-0.3-0.3,0.1c-0.1,1.4-0.9,2.1-1.9,2.6
	c-0.4,0.3-0.6,0.3-0.5-0.1c-0.1-1.2-0.6-2-1.6-2.3c-0.2,1.7-1.3,2.3-2.6,2.8c-0.4,0.2-0.5,0.1-0.4-0.4c0.2-0.9,0.1-2.3-0.8-2.5
	c-0.3,1.6-2.1,2.8-3.9,2.8c0.2-1.1,0.8-1.7,0.7-3l-0.2-0.5c-0.6,1.5-1.7,2.2-3.2,2.9c-0.4,0.1-0.9,0.3-1,0.2
	c0.2-0.1,0.5-1.3,0.9-1.8c0.5-0.6,0.9-0.8,1.4-1.5l-0.3-0.2c-1,0-2.1-0.1-3.1-0.1c0.2,1.3,0,2.1-0.8,2.7c-0.6-0.2-1.1-1.2-2.9-1
	c-0.5-0.5,0-0.5-0.1-1.3c0.4-0.6,0.6-0.7,1-1.3l-0.1-0.1c-1,0.7-5.2,4.3-6.8,1.6c-0.4-0.4-0.4-0.6-0.3-1.2c1-1,2.8-0.9,3.9-1.8
	l-0.1-0.3c-1.5,0-3.3,1-4.1,0.5c-0.7-0.4-0.8-1-1.4-1.5c0-0.8,0.1-1.3,0.3-1.8l0.4-0.1c5.2,1.7,11.6,4.1,18.7,2.3
	c1.6-0.6,3.2-1.3,4.7-1.9l0.1,0.1c0.1,0.6,0.2,1.2,0.3,1.8l0.4-0.1c1.9-2.5,2.5-2.8,1.7-6.6l0.7,0.7c1.2,1.2,2,1.7,1.1,4
	c2.5-0.5,3.3-3,2.9-5.3c0.2,0.1,0.6,0.3,0.8,0.7c0.2,0.4,0.3,0.9,0.6,1.3l0.6-0.9c0.4-1.7,1.3-0.9,2.1-3.3c0.2-0.5,0-1.4,0.1-1.9
	c0.1-0.3,0.3-0.4,0.4-0.7c0.2-0.7,0.3-1.7,0.2-2.3c0.3-0.3,0.5-0.6,0.7-1.1c0.3-0.7,0.5-1.9,0.5-2.8c3.5,0.4,8,1,11.9,0.9
	c2.7-0.1,5.5-0.5,8.2-0.7c18.4-3.4,23.2-2.8,34.4-0.5c4.5,0.9,12.9,0.8,12.2-3.9c-0.6-4.5-10.7-4.4-15.6-3.2
	c-8.9,2-18.1,3.3-27.4,5c-4.2,0.8-10.3,1.8-14.3,0.1c-4.1-1.7-6.8-6.1-2.8-9.9c4.8-4.5,18.6-2.6,22-7.8c1.5,0.9,0.1,3.9-0.3,4.9
	c1.7-0.5,2.9-1.5,5.1-1.9c3.1-0.5,6,1.2,9.2,0.4c3-0.7,5.8-3.6,9.3-1.9l-0.1,0.3c-3.4,0.6-5.4,3.9-8.4,5.1
	c-2.5,1-5.8,0.2-8.3,0.3l0.2,0.2c3.6,1.5,3.2,3.3,5.1,4.7l-0.7,0.3c-1.6,0.8-4.2,0.1-5.7-0.5c-1.7-1-3.3-2.1-5-3.1
	c-4.5-2.6-18.3-2.1-20,2.6c-1.2,2.9,2.3,4.4,6.8,4c3.5-0.3,7.3-1.1,8.7-1v-0.1l-0.3-0.4c-0.3-0.1-0.5-0.3-0.8-0.4l0.1-0.3
	c1.6-0.3,2.4,0.3,3.8,0.7c0.3-1,0.6-1.9,1.4-2.4c1.4,0.3,3.5,1.8,4.5,1.1c1.8,0.9,6.1,2.5,8.5-0.4c-0.8-0.3-2.4-1.6-2.6-2.6
	c1.6,0.3,3.3,1.8,5.1,1.9l0.3-0.4c0-0.5-0.1-1.2-0.1-1.7c0.1-0.3,0.3-0.4,0.8-0.1c1.4,0.9,3.7,2,5.8,1.6c0.1-1.1-1.1-1.8-1-3
	c0.9,0.5,4.7,2.4,5.3,1.9c0-0.7-0.4-1.6-0.5-2.2l0.9,0.7c0.7,0.6,1.4,1.3,2.2,1.9h0.3c0.5-1.2,0.8-2.5,1.4-3.5
	c0.4-0.3,0.3,0.3,0.4,0.4c0.7,1.8,2,3.4,3.5,4.1c0.9-1.1-0.1-2.7,2.2-4.6l-0.4,1.3c0,2.5,0.1,3.9,1.6,5.1
	c1.4-0.3,1.3-1.5,2.2-2.3c1.4-1.5,4.7-0.5,6.3-3c-1.4,4.2-4,3.6-5.1,5.3c-1,1.5-0.1,2.5-0.6,4.8c-0.2,1.1-1,1.7-1.5,2.6h0.1
	c1.6-0.7,2.5-2.3,3.9-3c2-1,5.4,0.5,8.2-0.8c-2.4,4.4-4.9,2.8-8,3.7c-1.4,0.4-2,1.2-3,1.8c-1.6,0.8-3.8,1.1-5.8,1.5
	c-4.5,0.8-11.1-0.7-14.3-0.8l0.1,0.7c2.4,3,5.2,4.7,10,5.4c6.3,0.9,13.7-6.3,18.1-0.4l-0.3,0.3c-0.3-0.1-0.6-0.2-0.9-0.3
	l-0.3,0.3c1,1.9,3.3,1.7,3.5,4.7l-0.1,0.3c-0.5-0.2-1.1-0.4-1.6-0.5l-0.1,0.1c0.6,1.1,1.7,2.3,1.8,3.4c-0.5-0.1-1-0.2-1.5-0.3
	l-0.1,1.5l0.7,0.1c0.2,0.1,0.7,0.2,1.1,1.1C137.5,43.4,137.6,44.1,137.2,45.4 M124.3,45.3c-0.6-0.2-0.5-0.2-0.9-0.6
	c-0.5-1.1-0.1-2.1,0.3-2.3c1.5,0,2.9,0.6,3.7,1.3l-0.5,0.3C125.9,44.4,125.1,45.5,124.3,45.3 M100.5,39.7c0.2,0.3,0.3,2.1-1,2.3
	c0.1,2-1,3.5-1.4,3.8c-1.3-0.8-2-1.7-2.9-2.4l-0.3,0.3c0.3,1.4-1.2,3.3-2.5,3.6c-0.3-1.2-0.4-2.5-1-3.3c-0.6-0.3-0.3,0.1-0.4,0.2
	c-0.1,2.1-1.1,3.2-2.4,4.2c-0.1,0-0.6,0.2-0.5-0.1c-0.4-1.7-1.5-2.7-2.7-3.5l-0.3,0.1c0.1,2.4-0.9,3.4-2.4,4.2l-0.4-0.3
	c-1.3-1.2-0.6-1.5-0.9-2.6c-0.6,0-1,0.1-1.8-0.1c-0.3,0.1-0.1,0.2-0.1,0.3c0.4,0.9,0.4,1.7,0.1,2.7l-0.5,0.4
	c-0.8-0.8-1.9-0.6-2.8-0.5c-0.9-1.4,0-2.4-0.3-2.9c-1.1,0.9-2.8,3.5-5.2,2.5c-0.3-0.2-0.5,0.1-1-0.7c0-1.1,0.3-1.2,0.8-1.8
	c1-0.5,2-0.9,3-1.4v-0.1c-0.5,0-2,0.2-3.4,1c-1.6-0.1-3.9-1.3-2.1-2.8c2.7-1.5,14.2,2.1,20.3-2.6c0.3-0.2,0.2-0.5,0.2-0.6
	c-3.5-2.3-4.6-5.4-1.4-8.8c0.1,0,3.1-0.6,6.9,0c0.4,0,0.9,0.1,1.3,0.4C94.1,35.6,98.7,37.6,100.5,39.7 M24.9,36.6
	c2.1,0.4,3.7,2.8,4.7,4.3v0.2h-0.7c-2.1-0.6-4.1-0.7-4.9-2.7C24.3,37.5,24.5,37.2,24.9,36.6 M39.7,39c-0.7,0.9-1.6,1.3-2.8,1.6
	v-3.7h-0.1c-0.9,0.5-2,1.3-3.5,0.9c0.6-1.2,0.8-2.8,0.5-2.8h-0.1c-1.3,0.3-2.3,0.9-3.7,0.7c-0.4-0.1-0.2-0.3-0.1-0.4
	c0.3-0.8,0.6-1.6,0.9-2.4c-1.4,0.2-2.6,0.4-3.9-0.1c0.3-0.3,0.8-0.6,1.1-0.9c0.3-0.3,0.4-0.7,0.7-1.1l-0.3-0.3
	c-1.2,0.3-2.4-0.3-3.4-0.7c0.3-0.4,0.6-0.7,1.1-1.1c0.5-0.2,1-0.6,0.8-0.8c-0.1-0.1-0.1-0.3-0.4-0.4c-1.4-0.2-2.8-0.2-3.7-1.1
	l0.4-0.4c1.2-1,1.4-0.9,3.1-0.8c0,0,0.2,0,0-0.3c-0.8-1.2-0.4-3.8-0.5-3.3c-0.3,1.7-3,1.9-2.9,1.3c0-3-1.1-2-1.3-2.7
	c-0.2-0.5,0.3-1.1,1-1.5c1.8-1.1,2.9,1,2.6-0.1c-0.2-0.2-0.2-0.5-0.5-0.7c-1.4-0.3-2.6-0.9-3-1.6c-0.3-0.7-0.2-1.6,0.3-2.4
	c0.2-0.2,0.3-0.3,0.6-0.4c1.5-0.2,2.9,2.7,3.1,2c-0.8-2.3-1.1-4.9,1-5.7c0.4-0.1,1.3-0.1,1.8,0.5c1,1.2-0.1,4.3,0,6.6
	c0.1,2.6,1.6,5.7,2.7,7.6c1,1.4,2.1,2.8,3.5,4.2c1.3,1,3.3,2.3,4.6,2.6c0.2,0.4,0.5,1.1,0.7,1.6c0.2,0.3,0.4,0.4,0.8,0.7
	c0.7,1.1,1.7,2.5,4,5.5l0.3,0.7C43,40.2,41.4,39.7,39.7,39 M29.8,11.4c0-0.4,0.7-0.4,1-0.4c1,0,1,0.3,1.6,0.7
	c1.1,1.3-1.2,2.7-2.1,6.8c-0.1,0.3-0.2,0.6-0.2,0.6l-0.2-0.5C29.2,16.1,29.7,14,29.8,11.4 M39.4,27.6c-0.7-1.6,1.1-3.5,1.6-4.5
	c0.1-0.4,0-0.3-0.1-0.1c-0.6,0.7-1.2,1.5-1.9,2.1L38.7,25c0-0.4,0-0.9,0.1-1.2c0.6-1.8,1-2.8,2.4-4.1c0.2-0.1,0-0.3-0.3-0.3
	c-0.7,0.2-1.7,0.8-2.4,1c0-0.2,0.1-0.8,0.3-1.2c0.4-0.6,0.8-1.2,1.3-1.6h0.4c0,0.3,0.1,0.6,0.3,0.9c0.5,0.7,1.2,1.6,1.4,1.7
	c0.4,0.2,0.8,0.4,1.1,0.6c-1.2,2.6-2.1,5.4,1.2,7.8c0.7,0.5,1.5,0.8,2.1,0.9c0.4,0.8,2.5,1.3,3,0.6c0.7-0.1,1.4-0.3,2.2-0.4
	c2.3-1,3.4-3.1,3.4-5.7c1.5-0.1,1.9-0.7,2.7-1.5l0.3,0.4c0.6,1.1,0,3-0.5,3.8c-0.4-0.4-0.8-0.8-1.2-1.2h-0.1
	c0.4,1.3,1.2,2.5,0.7,3.9l-0.3-0.1c-0.2-0.7-0.5-1-1.2-1.2v0.1c0.8,1.4,1.8,4,0,5.4h-0.1c0-1.4-0.6-2.4-1.4-3l-0.3,0.3
	c0.4,0.9,1.4,3.1,0.8,4.2c-1.1-0.8-2.3-2-3.4-2.8l0.5,1.1c0.7,1.1,1.4,2.5-0.2,4.9c-0.9-2.7-4.4-4.6-5.1-6.1
	c-0.1,2.6,3.3,4.5,0.6,8.2l-0.3-0.1c-0.7-2.3-2.6-3.5-3.8-5.4c-0.8-1.3-1.2-2.3-0.7-4.4c-0.2,0-0.4,0.2-0.5,0.2
	c-0.3,0.5-0.6,1.2-0.9,1.6c-0.4-0.2-0.4-0.5-0.5-0.8c-0.4-1.7,0.7-2.3,1.1-3.7l0.1-0.5c0,0-0.1-0.4-0.4,0.4
	c-0.3,0.6-0.4,0.9-1,1.2v-0.8c0.3-0.6,0.5-1.2,0.6-2.1l-0.3,0.1l-0.2,0.4c-0.1,0.3-0.3,0.5-0.4,0.8
	C39.6,27.7,39.4,27.7,39.4,27.6 M48.4,15.2c-0.3,0.4-0.5,0.8-0.8,1.2c-0.3,0-0.6-0.1-0.9-0.1c-1.1-0.5-2-1.8-1.7-3l0.8,0.1
	c1.3,0.5,2.1,1.4,2.1,1.4C48.5,14.8,48.6,15,48.4,15.2 M52,17v-0.7l0.1-0.3c0.8-0.3,2.1-0.5,3-0.4c0.6,0.1,1.1,0,1.4,0.3l0,0
	C55.7,17.7,52.6,18.4,52,17 M41.5,15.5c-0.9-1.9,0.7-4.2-0.1-6.7c1.3,0.5,2.5,1.7,2.6,1.8c0-1.1,0.6-2.8,1-3.5
	c0.3,0.2,0.6,0.6,0.8,1.1c0.3,0.5,0.6,1,0.9,1.5c0.2-0.5,0.3-1.3,0.6-1.8c0.4-0.8,0.9-1.6,1.3-2.4c0.4,0.9,0.8,2.3,1.2,3.2
	c0.5-0.2,0.1-0.4,0.4-0.8c0.2-1.1,0.6-1.6,0.9-2.3c0.5,0.8,0.9,2.5,1.1,3.8h0.1l0.3-0.1c0.4-0.8,0.7-1.4,1.1-1.8
	c1.3,1.3,0.8,3.6,1.1,3.6c0.5,0,1.1-1.1,1.5-1.5c0.7,0.8,0.3,2.6,0.7,3.1l0.4-0.2c0.9-0.8,1.7-1.4,2.9-0.8
	c-0.2,2.3-0.5,6.2-1.7,6.8c-0.2,0.2-0.9-0.4-1.2-0.4c1.3,2.4,0.4,5.2-2.3,5.3c-0.4-0.2-0.8-0.4-1.2-0.7c-0.2-0.1-0.4,0-0.3,0.3
	c1.8,3-1,6.1-3.7,6.2l-0.3-0.1l0.1-0.8c2.3-0.1,3.9-2.8,3-5.3h-0.1c-0.4,1.1-0.7,1.7-2.3,1.6c-0.5-0.1-1-0.6-1.2-0.9
	c0.1-1.9,1.4-1.7,2.4-2.6V18c1.7,1.2,3.9,0.4,4.8-0.9c0.1-0.3,0.2-0.6,0.2-0.8c0.3-0.7,1.4-0.7,1.4-1.9c-0.6,1.1-2.1,0.8-3.5,0.8
	c-1.2,0-2.6,0.2-2.7-0.1c-0.1-0.4-0.2-1.1-0.3-1.5l-0.3,0.5c-0.1,2-0.1,3.8-0.3,5.8c-1-0.4-2-0.8-3.4-0.5v-0.1
	c0.6-2,1.3-4.1,1.9-6.1c0-0.3-0.2-0.3-0.3-0.1c-0.2,0.6-0.3,1.1-0.8,1.2h-0.1c-0.9,0-1.4-1.1-2.1-1.4c-0.7-0.2-1.3-0.2-2-0.3
	c-0.4-0.2-0.7-1.1-1-1.6c-0.2-0.3-0.3-0.1-0.1,1c0.3,0.9,1.2,1.3,1.2,1.3s0,1.2,0.4,1.9c0.7,1.2,2,1.2,3.1,2
	c-0.3,0.8-0.9,1.9-0.7,2.7c0.6,1.3,1.7,1.9,1.5,3.6c-0.5,0.2-0.8,0.4-1.6,0.4c-1-0.4-1.7-0.7-2.2-1.6c-0.5-0.8-0.1-1.9,0.3-2.6
	l-0.3-0.3c-0.5,0.1-1.1,0.2-1.6,0.3c-1-0.2-1.7-1.2-2-2.5l-0.1-0.1l0.2-0.5C41.1,16.2,41.5,16,41.5,15.5 M139.7,43.4
	c0,0-0.2-1.2-0.8-2c1,0.5,0.7-2.2,0.3-2.9c1.9-0.7-0.2-4.3-1.7-5.4c0.4-0.3,1.2,0.2,0.9-0.3c-0.9-1.1-1.6-2.4-2.4-2.9
	c-0.6-0.4-2.1-0.2-2.1-0.2s-1.3-1.1-2.4-1c-2.5,0.3-6.5,1.9-10,2.6c-4.9,1-10.6-2.1-11.6-4c4.6,0.5,11.7,2.1,16.4,0.5
	c2.2-0.7,3.8-2.7,6-3.2c1,0,2-0.1,3-0.1c4.1-0.9,5.4-3.4,6.5-7.4c-0.1-0.8-0.3-0.4-0.4-0.1c-1.7,4.6-6.7,1.6-10.8,3.9
	c-0.8,0.9-0.6-0.1-0.7-0.4c-1.8-6.3,6.9-3.5,5.2-10.8c0,0-0.2-0.1-0.2,0.3c-0.6,3.1-3.7,1.9-6.1,3.2c-2,1-2,2.5-2.4,2.6
	c-1.2-2.4-0.9-4.5,0-6.4c0.3-0.7-0.4-0.5-1.4,0.1c-1.4,0.9-2.5,2-2.3,4.4c-0.1,0-0.5,0-1-0.4c-1.7-1.8-1.7-2.9-2-3.9l-0.4,0.3
	c-1,0.4-1.9,1.7-2.2,2.8c-1.4-0.5-1.6-2-3.5-2.1v0.3c-0.3,0.5-0.3,0.9-0.1,1.5c0.1,0.3-0.2,0.2-0.5,0c-1.1-0.5-3-1.4-4.1-0.9
	c0,0.8-0.2,1.4,0.6,2.6c-2.3-0.1-3.9-1.7-6.1-1.9l-0.1,0.4c-0.1,0.7-0.1,1.2-0.3,1.9c-1.1,0-3.7-1.5-4.7-2.1
	c6.7,0.9,10.8-7.6,15.2-5.8V6.5c-0.9-1.5-2.4-2.7-5.1-2.4c-1.9,0.2-3.7,1.7-5.5,2.3c-3.7,1.2-7.1-1-11-0.3
	c-1.1,0.2-1.5,0.8-2.7,0.7c0.2-1.4-0.3-3.3-1.2-4.1l-0.3,0.1C86,6.7,76.2,6.8,69.4,9c-4,1.2-7.8,4.4-5.9,9.3
	c1.9,5.1,10.3,5.8,17,4.5c10.2-2,21.2-3,31.4-5.5c5-1.3,10.9-0.3,13.3,2.4c0,4.9-8.2,4.4-12.4,3.4c-5.3-1.3-15.6-3-21.4-1.4
	c-7.9,2.2-23.1,4-32,1.6c-0.3-1.1-0.7-2.5-0.4-3.8c1.6-0.7,2.7-6.1,2-8c-1.4-0.3-2,0.1-3.2,0.3c-0.4-0.8-0.9-1.6-1.4-2.4h-0.1
	c-0.2,0.6-0.2,0.6-0.8,0.8c-0.2-1.3-0.8-2.6-1.6-3.4l-0.3,0.1c-0.1,0.3-0.3,0.6-0.4,0.9h-0.5c-0.1-0.5-0.6-2.4-0.8-2.6l-0.4-0.1
	c-0.5,0.6-1,1.2-1.5,1.8c-0.5-0.6-0.6-1.2-1.3-1.5c-0.6,0.9-1.3,1.7-1.9,2.6l-0.5-0.1l-1.1-1.6l-0.3,0.1
	c-0.4,0.9-0.7,1.8-1.1,2.7c-1-0.2-1.8-0.7-2.8-0.4c0.2,3-0.1,5.5-0.3,8.4c-2.3,0.9-2.8,2.5-2.6,4.9c0,0.2,1-0.6,1-0.1
	s-0.9,2.2-0.9,2.5c0,1.7,0.5,1.5,0.7,2.2c0.1,0.5-0.1,0.9,0,1.3c0.3,1,0.6,1.5,0.7,2.4c-2.9-0.2-9.4-6.8-8.8-10.3
	c0.4-2.3,2-4.2,2.6-6.2c1-3.4-1.5-6.6-4.1-6.4c0.3,1.2,1,1.6,0.7,3.1h-0.1l-0.5-0.4C28.7,8,27.3,6,24.3,6
	c0.8,1.1,1.5,1.8,1.5,3.7c-0.7,0.8-1.2,1.7-1.2,3.2c-0.1,0.6-0.2,0.3-0.4,0.2c-1.3-1.1-2.3-1.8-4.5-1.3c-0.9,0.3-1.9,1.4-1.1,1.3
	c1.5,0.2,2,0.6,2.7,1.5c-0.3,1,0.1,2.1,0.6,2.7c0.4,0.5,0.9,0.7,0.5,0.9c-0.7,0.6-1.2,1.3-1.4,2.4h-2.7v0.1
	c0.9,2.3,2.4,2.9,4.1,2.9c0.8,0,1.9,0.5,2.5-0.3c0.3-0.1,0.4,0.8,0.5,1c-1.5,0.1-3.1,1.1-3.4,2.4c1.1,0.4,2.1,0.8,3.2,1.2
	c0.5,0,0.6,0.2,0.2,0.4c-0.5,0.4-1.1,0.8-1.6,1.2l0.3,0.4c1.2,0.4,2,0.9,3.4,1.2c0,0.2,0.1,0.2-0.2,0.5c-0.4,0.3-0.7,0.7-1.2,1
	c0.8,0.9,2.1,1,3.5,1.2c0.1,0,0.2,0.3,0,0.7c-0.4,0.3-0.8,1-0.9,1.6c1.6,0,3,0.2,4.3-0.1c0,0.2,0.2,0.4,0,0.7
	c-0.3,0.6-0.6,0.8-0.9,1.3l0.1,0.3c1.4,0.1,2.7,0.1,3.9-0.1c0,0.5,0.2,1,0,1.5c-0.4,0.8-0.7,1.7-0.7,1.7s1.9,0.5,4.4-1.8
	c0.4,0.4,1.2,0.7,2,0.8c-0.2,0.5,0,0.3-0.4,0.5c-1,0.6-3.6,0.7-4.7,0.7c-1.6-0.1-3.2,0-4.8-0.1c-2-0.6-3.3-6.3-8.2-6.5
	c-0.7,0-2.4,0.7-2.6,2.4h0.4c0.9-0.4,1.3-0.2,2,0.2c0.1,0.5,0.2,1.1,0.3,1.6c-3.1-0.3-5.8-0.4-6.1,2.8c1.4-0.8,2.4-1,3.2-0.7
	c0.2,1.1,0.8,1.5,1.4,2.3l0.2,0.4c-2.4,0.8-2.5,3.7-1.5,5c0.1,0.2,0.4-0.2,0.5-0.6c0.4-1.9,1.2-1.4,1.6-2.1
	c1.1,0.9,1.8,1.4,3.5,0.9c1-0.3,1.6-1,2.3-1.1c0.1,0.2,0.1,1.2,0.9,1.9c0.2,1.3-0.4,2.7-0.2,2.5c0.8-0.5,2.3-1.1,2.9-2
	c1.2-0.2,2-1.6,1.8-2.9h1.1c0,0.1-0.3,0.3-0.6,0.7c-0.4,1-0.8,1.7-1.2,2.7l0.1,0.1c1.9,0,2.8-0.6,4.4-1.6
	c-0.1,0.7-0.8,1.5-1.2,1.9c-0.3,0.4,0,0.4,1.1,0.4c2.3,0,3-0.7,3.9-1.7h0.4v0.3l-0.1,1.9c1.9-0.4,3.5-0.8,4.2-2.8
	c0.8,1.2,0.3,2,0.8,2.4l0.1,0.1c1.4-0.4,2.3-1.4,3.1-2.4l0.4,0.3c0.1,0.5,0.2,1.1,0.3,1.6c0.7-0.1,3-0.9,3.8-3
	c1.8-0.4,3.8-2.4,4.2-3c0.7-1.6-0.8-2.9-1.3-4.7c1.1,0.2,2.9,0.6,3.9,0.7c2.3,0,4.3-0.3,6.9-1.1c0,0,1.3-0.5,1.7-0.6
	c4.9-1.9,6.8-3.4,9.6-4.7c1.7-0.6,3.3-1.3,5-1.9h0.3c-0.5,2.3-1.9,3.4,0.3,6.5c0.6,0.8,1.9,1.5,1.9,2c-2.4,1.9-8.7,2.3-11.5,1.8
	c-1.1-1-1.9-1.8-3-2.8c-0.5-0.2-0.9,0-1.1-0.2c-0.9-0.8-3.2,0.2-3.5,0.4c-0.4,0.2-0.6,0.6-0.9,1c0.8,0.1,2.3,0.2,2.6,0.8
	c0.1,0.3-0.1,0.5-0.3,0.5c-1.1,0.1-2.3,0.1-3.2,0.6c-1.8,1.2-2.7,3.2-2,4c0.9-0.8,1.2-1.2,3-1.2c0.4,0.7,1.2,0.7,1.8,1.2
	c-2.4,2.6-1.5,4.2-0.6,5.6h0.4c0.5-0.7,0.7-1.9,1.5-2.3c1.7-0.9,2.1,0.3,4.3-1.8c0.2-0.3,0.4-0.6,0.5,0c0.2,1.8,1.2,1.1,0.8,4.3
	c-0.1,0.2-0.2,0.3,0.3,0.1c0.4-0.2,1.5-0.5,1.5-0.5c1.1-0.4,2.5-2.2,2.6-3.7c0-0.9,0.3-0.5,0.5,0c0.5,0.8,1,1.4,1.8,2l0.9-0.8
	c0.9-0.9,1.5-1.5,1.9-3.1c0.2-0.3,0-0.7,0.7,0.1c0.7,0.8,1,1.9,1.2,3.1c0.1,0.5,0.3,0.2,0.8,0c1-0.8,2.1-1.7,2.7-3.1
	c0.1,0,0.1-0.6,0.3,0c0.2,0.7,0.1,1.4,0.2,2.1c2-0.4,3.1-1.9,3.7-3.1c0.2-0.5,0.5-0.4,0.8-0.2c0.3,0.6,1.2,1.1,1.7,1.6
	c0.1,0.3,0.2,0.4,0.4,0.1c0.3-0.7,2.1-2.7,2-4.3c1.5-1,1.3-2.4,0.9-3.2c-1-2-5.1-3.3-5-5.8c-0.2-1.6,1.1,1.2,1.8,1.8
	c1.5,1.3,4.5,2.7,6.6,3.2C110,39.4,124,35,129,37.4c1.3,0.6,1.8,2,1.6,3.7c-0.1,0.3-0.3,0.6-0.4,0.9c-2.3,1.7-3.4-0.5-6.7-0.6
	c-1.9-0.5-2.6,1.5-3.1,3c-0.1,0.9,0.2,1,0.4,0.8c0.5-0.4,1.1-1.3,1.9-1.3c0.2,0.5,0.7,1.1,1.4,1.4c-0.8,1-1.1,2.9-0.2,4.3
	c0.3,0.2,0.4,0,0.4-0.3c0.4-1.9,2.1-2.2,2.1-2.2s0.6,0.9,1.4,1c1,0.1,1.3-0.7,2.2-0.5c0.2,1.8,1.3,2.7,2.6,3.4
	c0.5,0.3,1,0,1.2,0.1c-0.2-0.8-0.7-1.6-0.3-2.6c0.3-0.8,0.6-0.3,1.1-0.8c0.4-0.9,0.7-1.9,1.1-2.8c1.7,0.7,2.6,0.5,3.1,2.4
	c0.2-0.2,0.9-1.1,1.1-2C140.5,44.1,139.7,43.4,139.7,43.4"/>
	<path class="st7" d="M47,32.3c0,0,2.4-0.2,2.8-3c0.3-2.8-0.2-3.8,0.2-4.4c0.2-0.3-0.1-0.6-0.3-0.8l-0.6-0.5
	c-0.2,0-0.7,0.2-1.2,0.3c-0.5,0.1-1,0.1-1.1,0.3c-0.4,0.3-0.8,1.9-0.6,2.9c0.1,1.1,0.7,3.1,0.8,3.9C47,31.8,46.6,32.3,47,32.3"/>
	<path class="st2" d="M76.7,49.2c0,0,0.7,1.8,0.5,2.1c-0.2,0.3,1.3-0.5,1.5-1.8C78.1,48.7,76.7,49.2,76.7,49.2"/>
	<path class="st2" d="M68.8,50.8c0,0,0.6-1.2,1.5-1.6s-1-0.3-1.1-1.8C69.2,46.7,68,49,68.8,50.8"/>
	<path class="st2" d="M71.5,39.1c0,0-1.4-0.6-3.2,0.6c1.5,0.4,2.2,1.1,2.2,1.1S71.1,39.3,71.5,39.1"/>
	<path class="st2" d="M67.2,42.8c0,0-1.9,0.8-2.1,2.5c1.1-0.9,1.4-1,2-0.8C66.7,43.6,67.2,42.8,67.2,42.8"/>
	<path class="st2" d="M29.9,50.1c0,0,1.3-0.4,1.8-1.5c-0.6-1.2-2-0.9-2-0.9S30.3,48.8,29.9,50.1"/>
	<path class="st2" d="M22.5,44.8c0,0-2,1.1-1.6,3.4c0.7-1.3,1.8-1.8,1.8-1.8S22.3,45.5,22.5,44.8"/>
	<path class="st2" d="M18.3,41.3c0,0,1.6-0.8,2.6-0.2c0.1-1.1,0.5-1.5,0.5-1.5S18.9,39.7,18.3,41.3"/>
	<path class="st2" d="M21.9,36.9c0,0,1.4-0.3,2,0.4c0.1-0.8,0.8-1.3,0.8-1.3S22.9,35.3,21.9,36.9"/>
	<path class="st2" d="M22.7,12.8c0,0-1.7-1.1-3.4-0.1c1,0.2,2.1,1.3,2.1,1.3S21.5,13.1,22.7,12.8"/>
	<path class="st2" d="M26.4,9.3c0,0,1-0.5,1.6,0c-0.3-1.5-0.9-2.5-2.6-2.8C26.4,7.8,26.4,9.3,26.4,9.3"/>
	<path class="st2" d="M30.4,10.5c0,0,1.5,0,1.9,0.4c-0.1-1-0.6-2.4-2.3-3.1C30.8,8.8,30.7,10.1,30.4,10.5"/>
	<path class="st2" d="M120.9,45.6c0,0,0.9-1.1,1.7-1.5c0-1.1,0.3-1.5,0.3-1.5S121.3,42.8,120.9,45.6"/>
	<path class="st2" d="M124.1,49.2c0,0,0.8-1.6,2-1.7c-0.4-1-0.9-1.7-1-1.6C124.9,46,123.5,47.4,124.1,49.2"/>
	<path class="st2" d="M133.3,51.3c0,0-1.2-1.1-0.3-2.7c-0.8-0.9-2-0.4-2.1-0.2C130.8,48.7,131.6,50.7,133.3,51.3"/>
	<path class="st2" d="M137.8,45.4c0,0,1.1,0.8,1.3,1.5c0.6-1.6,0.2-3.7-0.2-3.5C138.4,43.5,137.6,44.3,137.8,45.4"/>
	<path class="st2" d="M21.4,20.8c0,0-1.2,0.9-2.2,0.6c1.7,1.7,3.1,1.7,3.1,1.7S22.6,21.8,21.4,20.8"/>
	<path class="st2" d="M47.3,24.6c0,0-0.9,0.4-0.6,2.3c0.2,1.8,0.9,3.6,1,4.4c0,0.7,0.8-0.4,1.2-1.4c0.5-0.9-0.2-4.4,0.3-5.1
	c0.4-0.7-0.3-1.1-0.7-0.3c-0.4,0.7-0.5,1.6-0.4,3.3c0.1,1.7-0.4,0.7-0.6-0.6c-0.1-1.3,0.3-1.9,0.4-2.3
	C48,24.3,47.6,24.4,47.3,24.6"/>
	<path class="st12" d="M96.8,38.9c0,0,1.1-0.1,1.2,0.8c0.1,0.9-0.1,0.9-0.6,1.1c-0.5,0.3-0.6,0.7,0.2,0.6c0.8-0.2,1.2-0.4,1.1-1.2
	c0-0.8-0.1-1.7-1.2-1.9C96.5,38.2,96.4,38.9,96.8,38.9"/>
	<path class="st12" d="M44.5,24.4c0,0,1.1,1.2,1.7,1.1s0,1.6,0,1.6S44.7,26.2,44.5,24.4"/>
	<path class="st12" d="M50.4,27.1c0,0,1.4,0.1,2.1-1.3s-1,0.9-1.7,0.1C50.1,25.2,50.4,26.9,50.4,27.1"/>
	<polygon class="st4" points="38.8,122.6 38.8,66.6 46.1,60.4 45.9,115.1 	"/>
	<path class="st6" d="M38.9,122.4h-0.7V66.7l0.2-0.5l7.1-6.2l0.7-0.1c0.2,0.1,0.4,0.4,0.4,0.6L46.4,115l-0.2,0.5l-6.9,7.5
	c-0.2,0.2-0.5,0.3-0.7,0.2c-0.3-0.1-0.4-0.4-0.4-0.6h0.7l-0.5-0.5l6.7-7.3l0.2-52.7l-5.7,5v55.4L38.9,122.4l-0.5-0.4L38.9,122.4z
	"/>
	<path class="st16" d="M113,113.6l0.2-53.9l7,5.3l0.1,57.3l-81.5,0.3l7.2-7.5c0,0,3,2.1,7.7,1.7c7.3-0.6,15.8-8.1,25.5-0.6
	c4.7-3,9.8-4.7,14.3-3.4s9.4,3.6,13.1,3.2C110.4,115.6,113,113.6,113,113.6"/>
	<path class="st6" d="M112.9,113.5h-0.7l0.2-53.7c0-0.3,0.1-0.5,0.4-0.6l0.7,0.1l7,5.3l0.3,0.5l0.1,57.1c0,0.4-0.3,0.7-0.7,0.7
	l-81.3,0.2c-0.3,0-0.5-0.2-0.6-0.4s-0.1-0.5,0.1-0.7l7.1-7.5c0.2-0.2,0.6-0.3,0.9-0.1l0.1,0.1c0.5,0.3,2.8,1.6,6.1,1.6
	c0.3,0,0.7,0,1,0c2.3-0.2,4.9-1.1,7.6-2s5.6-1.8,8.8-1.8c3.1,0,6.3,0.9,9.6,3.4l-0.4,0.5l-0.4-0.6c3.7-2.3,7.6-3.9,11.4-3.9
	c1.2,0,2.3,0.2,3.4,0.5c4.2,1.2,8.7,3.2,12,3.2c0.3,0,0.5,0,0.8,0c1.8-0.2,3.3-0.7,4.4-1.3c0.5-0.3,1-0.5,1.2-0.7l0.3-0.2
	l0.1-0.1L112.9,113.5h-0.7H112.9l0.4,0.5c-0.1,0-2.8,2.2-6.7,2.6c-0.3,0-0.6,0-0.9,0c-3.9,0-8.3-2.1-12.4-3.2
	c-1-0.3-2-0.4-3.1-0.4c-3.4,0-7.1,1.5-10.6,3.7h-0.8c-3.1-2.4-6-3.2-8.8-3.2s-5.6,0.8-8.3,1.8c-2.7,0.9-5.3,1.9-7.9,2.1
	c-0.4,0-0.8,0-1.2,0c-4.2,0-6.9-1.8-7-1.8L46,115l0.5,0.5l-6,6.3l79-0.2l-0.1-56.1l-5.6-4.2l-0.2,52.3l-0.3,0.5L112.9,113.5z"/>
	<path class="st7" d="M116.4,62l-0.4,0.6l-3.6-2.4l0.4-0.6l0.4,0.5c-0.1,0.1-2.2,1.9-5.8,1.9H107c-2-0.1-4.7-1.2-7.7-2.4
	c-2.9-1.1-6.1-2.2-8.6-2.4c-0.3,0-0.5,0-0.8,0c-3.3,0-5.7,1.1-7.4,2.3c-0.8,0.6-1.4,1.2-1.8,1.7c-0.4,0.5-0.6,1-0.6,1L79.7,64
	l-0.9-1.6l0,0c-0.2-0.4-2.4-3.8-7.8-4h-0.3c-1.8,0-4.5,0.7-7.3,1.6c-2.8,0.8-5.5,1.8-7.5,2.1c-0.5,0.1-1.1,0.1-1.7,0.1
	c-3.8,0-7.7-1.9-7.8-1.9l0.3-0.6l0.4,0.5l-3.5,2.9h-6.8v61.3h34.5l-0.1,0.8v0.1v0.4c0,0.8,0.2,2.2,1.2,3.5c1.1,1.3,3,2.6,6.9,2.9
	h0.4c0.9,0,2.8-0.1,4.3-1s2.8-2.4,2.8-5.4v-0.5v-0.7h35.5V62.8l-6.5-0.1l-0.2-0.1L116.4,62v-0.7l7.7,0.1v64.4H87.9v-0.7h0.7v0.6
	c0,3.5-1.6,5.6-3.5,6.6c-1.9,1.1-3.9,1.2-5,1.2h-0.5c-4.1-0.3-6.6-1.7-7.9-3.4c-1.3-1.6-1.5-3.4-1.5-4.4c0-0.4,0-0.7,0-0.7
	l0.7,0.1v0.7H35.7v-64h7.7l3.4-2.8l0.4,0.2c0,0,0.2,0.1,0.6,0.3C49,60,51.9,61,54.4,61c0.5,0,1,0,1.4-0.1
	c1.8-0.3,4.6-1.3,7.3-2.1c2.8-0.8,5.6-1.6,7.7-1.6h0.3c6.4,0.3,8.9,4.6,8.9,4.7l-0.6,0.3l-0.7-0.1c0.1-0.5,0.4-0.9,0.9-1.5
	c1.4-1.8,4.8-4.5,10.3-4.5c0.3,0,0.5,0,0.8,0c2.9,0.1,6.1,1.3,9.1,2.5c2.9,1.1,5.7,2.2,7.3,2.3h0.4c1.6,0,2.8-0.4,3.6-0.8
	c0.4-0.2,0.7-0.4,1-0.5l0.2-0.2l0.1-0.1l0.4-0.3l4,2.7L116.4,62v-0.7V62z"/>
	<polyline class="st6" points="113.6,113.2 120.7,121.8 119.7,122.7 112.6,114.1 	"/>
	<path class="st17" d="M79.7,115.8c0,0-5.7,5-5.9,5.8c-0.2,0.8,0.8,1.3,0.8,1.3s-4,4.7,2.8,7.5c6.7,2.7,9.9-5.1,7-9.3
	C80.6,115.7,79.7,115.8,79.7,115.8"/>
	<path class="st10" d="M82.9,122.5l0.5,0.7c0.2,0.4,0.6,1.7,0.6,2.2c0,2-1.7,3.5-4,3.5s-4-1.7-4-3.7c0-0.7,0.3-2.3,0.8-2.5
	c0,0-1.1-2.8,2.6-3.2C81.6,119.2,83.4,121.7,82.9,122.5"/>
	<path class="st5" d="M48.2,20c1.4,0,2,0,2.6,0.6c0.2,0.3,0.2,0.6-0.2,0.8c-0.7-0.1-0.9,0.5-1.5,0.9l-0.4-0.5
	c-0.3-0.5-0.6-0.9-0.8-1.3C47.8,20,47.8,20,48.2,20"/>
	<path class="st9" d="M48.1,20.1c0,0,0.7,0.7,0.9,1.2c0.2,0.5,0.2-0.7,0.6-0.4s1.5,0.7,1.2-0.2C50.5,19.8,48.1,19.9,48.1,20.1"/>
	<path class="st18" d="M44.9,67.4l-0.2-1c0,0-0.1-1.2-0.2-1.5c-0.7-0.2-2.5,1.9-2.8,2.3s-0.2,0.4-0.2,0.4l-0.2,1.5
	c-0.8,15.9,0.4,34.5-1.3,50l-0.2,0.2h-0.2v-1.8c0.1-11.9-0.1-23.8,0.1-35.7l0.1-8.8c0,0,0.3-6.1,0.4-6.3c0.1-0.3,2.1-2.1,2.1-2.1
	l3.1-2.3c0.1,0,0.2,5.7,0,5.7C45,67.9,44.9,67.4,44.9,67.4"/>
	<g>
	<path class="st8" d="M56.4,79.8c0.4-0.6,0.6-0.3,0.6,0.3c0,0.6,0.2,4.3-0.2,5c-0.3,0.8,0.2,1.1,0.7,0.3c0.4-0.8,0.7-2.5,0.7-6.3
	c0-0.4,0.9,0.6,1.9,1s1.4,0.2,0.5-0.4s-1.8-1.4-2.2-1.9v-1.7c0,0,1.5,0,2.2-0.2c0.8-0.2,1.2-0.8,0.3-0.8c-1,0-2.4,0-2.4,0v-2.9
	c0-0.9-0.4-1.1-0.7-1.1c-0.3,0-0.8,0.2-0.8,1.4v2.6h-3.6c0,0-1.1,2-1.3,2.3c-0.2,0.3,0.7-0.2,1.3-0.5c0.6-0.3,3.1-0.7,3.6-0.7
	c0,0,0.2,1.7-1.1,2.8c-1.3,1.1-2.2,2.2-6,3.1c-0.4,0.1,0.2,0.9,1.5,1.1C52.6,83.5,54.3,82.7,56.4,79.8z"/>
	<path class="st8" d="M73.7,76.8H70c0,0,1.8-3.5,2.1-4c0.3-0.1,0.5-0.3,0.5-0.6c0-0.3-1.2-1-1.4-0.8l-1,0.6h-2.9
	c0.1-0.5-0.7-1.3-0.9-1.3c-0.2,0-0.1,0.1-0.6,1.3c-0.4,1.2-2.4,2.8-2.4,2.8s-0.2,0.3,0.3,0.3c1.5,0,3-2,3-2h3.1
	c0.4,0,0.6,0.1,0.4,0.5s-1.8,3.2-1.8,3.2c-0.8,0-3.4,0-4.2,0c-0.8-0.1-1-0.3-1.2,0.2s-0.4,1.2-0.4,1.2c0.3,0.5,1.3-0.3,1.7-0.3
	H67c0.6,0,0.7,0,0.7,0c-0.6,0.9-2.9,4.1-5.9,5.5c-1.4,0.7-3.2-0.5-3.2-0.2c-0.1,0.9,1.1,1.6,2.7,1.9c1.4,0.2,3.4-1.8,4.2-2.6
	c0.8-0.8,1-0.4,1.1,0c0.8,2.9,1.1,3.5,1.6,3.5h3.5c0.5,0,0.7-0.5,1.1-2.5c0.4-2.1,0.7-3,0.2-3.2c-0.5-0.3-4.5-0.1-4.5-0.1
	c-0.5,0-0.7-0.1-0.5-0.4c0.8-1,1.3-1.9,1.3-1.9s4.6,0,5-0.1c0.3-0.3,0.8-1.6,0.6-1.7C74.8,75.9,74.1,76.8,73.7,76.8z M68.3,81.5
	c0.2-0.2,2.4-0.1,2.7-0.1c0.3,0,0.8,0.3,0.6,1.1c-0.2,0.9-0.4,1.9-0.7,2c-0.3,0.1-1.8,0.2-2,0.1S67.5,82.3,68.3,81.5z"/>
	<path class="st8" d="M59.9,98.5l-1.4,1c0,0,0.1-1.6,0.1-2c0.7-0.1,2.5-0.4,2.5-0.8c0-0.7-2.6-0.5-2.6-0.5s0.1-1.8,0.1-2.6
	c0-0.4-0.8-0.8-1-0.8c0,0-0.7,0.1-0.7,0.7v2.7h-2.2c0,0,0.1-0.4,0.1-0.8c0-0.4-0.7-1-1-0.5c0,0-0.4,1.2-0.6,2
	c-0.2,0.9-1.1,2.1-1.4,2.7c-0.4,0.6,0,1.2,0.8,0.7s1.9-1.9,1.9-2.4c0.6,0,2.6-0.2,2.6-0.2l-0.1,2.7c0,0-2.2,2-5,2.6
	c-0.7,0.2-1.2,0.8-0.2,1.4c0.5,0.2,2,0.1,3.9-1.4l1-0.7c0.2,0,0,2.4,0,3c0,0.7,0.7,0.5,1-0.6c0.2-1.1,0.6-3.7,0.6-3.7
	S60.5,99.2,59.9,98.5z"/>
	<path class="st8" d="M73,95.2c-1.1,0.3-4.3,0.8-8.4,0.8c-0.4,0-0.1-0.7,0-1.4c0.1-0.6,0.2-1.9-0.7-1.9c-0.8,0-0.6,0.7-0.6,0.7
	s0.2,3-2.5,5.4c-0.2,0.2-0.3,0.9,0.8,0.3c1.2-0.7,1.9-1.8,1.9-1.8h1.7c0.2,0-1.4,5.9-5.7,6.8c0,0-0.6,0.2,0.2,0.6
	c0.8,0.3,3.1-0.5,4.3-2c1.2-1.5,2.4-4.1,2.8-5.4c1.1-0.1,2.3-0.1,2.3-0.1s-1.8,6-5.8,8.7c-0.2,0.2,0.3,0.4,1.6-0.1
	c1.3-0.4,3.6-2.6,5.7-8.8l2.3-0.2c0.2,0.1,0,0.6-0.2,1.5c-0.3,0.8-2,5-3.1,5.8c-0.5,0.3-2-0.5-2-0.3s1.1,1.6,1.8,1.6
	c0.8,0,1.7-0.7,2.7-2.7s2.4-5.2,2.5-6.1C74.9,95.5,74.1,94.9,73,95.2z"/>
	<path class="st8" d="M86.1,73.9c0,0,0.8,2.3,0,9.4c-0.1,0.5-0.1,1,0.3,1c0.7,0,1.2-1,2-1.1c0.8,0,5-0.4,5.5-0.4s0.4,0.2,0.5-1.9
	c0.1-2,0-6.7,0.2-8.1c0.3-1.3,0.2-1.5-0.3-1.5c-0.5-0.1-4.9,0.6-6.4,0.7c-1.4,0.1-2.9-0.4-3.1,0.3
	C84.6,73.2,85.4,73.8,86.1,73.9z M87.8,76.7c0,0,2.9-0.6,5.1-0.6c0.2,0,0.3,0.4,0.3,1.2c0,0.8,0.1,1.1-0.5,1.1
	c-0.6,0.1-4.2,0.5-4.6,0.5c-0.4,0.1-0.3-0.4-0.3-1.1S87.8,77,87.8,76.7z M93.2,80.2c0,0.5,0.1,1.4-0.4,1.4s-4.1,0.2-4.7,0.4
	c-0.7,0.2,0-0.2-0.1-1.9c0,0,1.9-0.4,3.8-0.5C93.6,79.6,93.2,79.7,93.2,80.2z M88.3,73.2c0.5-0.1,3.3-0.4,4.2-0.4
	s0.7,0.4,0.7,1.4c0,0.5,0,0.7-0.5,0.7c-0.4,0-3.8,0.4-4.1,0.5s-0.9,0.2-0.9-0.2c0-0.4-0.2-1.4-0.2-1.4
	C87.8,73.6,87.8,73.3,88.3,73.2z"/>
	<path class="st8" d="M90.8,85.1c-0.4-0.1-1-0.1-0.5,0.7c0.5,0.8,2.2,1.7,4.7,0.6c2.5-1.1,4.7-5.2,4.8-6c0.7,0,4.8,0,4.8,0
	s-0.3,4.5,1.5,6c0.4,0.3,1,0.3,0.8-0.5S106,81.6,106,80s0.3-7.6,0.7-8.7s0.5-1.4-0.8-1.4s-7.8,0.9-8.5,0.9S96.5,71.7,97,72
	c0,0-0.1,0.5,0.3,0.6c0.3,0.3,2.8,5.9-0.5,10C96.3,82.9,94.2,85.5,90.8,85.1z M104.5,78.9c-0.8,0-4.5,0-4.5,0s0.1-2.1,0-3
	c0,0,4.1-0.3,4.5-0.5C104.9,75.2,104.5,78.2,104.5,78.9z M98.8,71.9c0,0,2.9-0.1,4.4-0.2s2-0.4,1.9,0.5s0,1.8-0.5,1.9
	s-4.1,0.6-4.9,0.6c-0.1-0.6-0.3-1.3-0.6-1.8C98.9,72.3,98.6,71.9,98.8,71.9z"/>
	<path class="st8" d="M89.7,93.2c-1.6,0.5-2.7,0.2-2.7,0.2c-0.8,0-0.4,1.3,1.9,1.3c0.8,0,2.4-0.4,2.5-0.9
	C91.5,93.1,91.4,92.7,89.7,93.2z"/>
	<path class="st8" d="M89,97.3c-1.6,0.3-3.4,0.3-3.4,0.3s-1.4,0-1.1,1c0.8,1.6,1.9,0.1,3.7-0.2c2.4-0.4,2.5-0.3,2.4,0
	c-0.3,1.2-1,2.1-2.5,3.7c-1.5,1.6-3.2,1.3-3.8,1.1c-0.7-0.3-1.2-0.9-1.1-0.2c0.5,2.6,3.2,2.1,3.6,2c3.4-0.7,5.2-6.8,5.4-7.7
	C92.4,96.3,90.6,97,89,97.3z"/>
	<path class="st8" d="M105.3,98.8c0.4-0.5,0.8-3,0.8-3.5c0-0.4-1.4-0.8-4.7-0.9c-0.2,0-0.5,0-0.7,0c0,0,0-0.7,0.1-1.4
	c2.3-0.1,4.6-0.1,4.9-0.2c0.5-0.1,1.5-0.9,0.7-0.9c-0.4,0-2.9,0-5.5,0.1c0-0.1,0-0.2,0.1-0.2c0.2-0.7,0.6-1.3,0.2-1.5
	c-0.5-0.2-1,0.2-1,0.2c-0.3,0.1-0.4,0.8-0.5,1.6c-2.2,0-4,0.1-4,0.1c-0.2,0.1-1.1,1.1-0.7,1.5c0.5,0.4,0.7-0.4,1.7-0.4
	c0.3,0,1.5,0,2.9-0.1c0,0.5,0,0.9,0,1.3c0,0.1,0,0.1,0.1,0.1c-2.8,0.3-5.6,1.1-5.6,1.1c-0.4,0.5,0.1,1.5,0.4,2.4
	c0.2,0.8,0.7,1.7,1.1,1.8c1,0.1,4.7-0.2,6.8-0.3C104.3,99.4,104.8,99.3,105.3,98.8z M98.1,98.6c-0.2,0.5-1.4,0.4-2,0.3
	c-0.2,0-1-2.3-0.6-2.4c0,0,2.2-0.7,2.4-0.3C98,96.5,98.3,98.1,98.1,98.6z M101.3,98.6c-0.3,0.2-1.5,0.2-1.9,0.2S99,98.7,99,98.1
	c0-0.6-0.2-2.3,0.3-2.4l2-0.1c0.2,0,0.1,0.9,0.1,1.7C101.5,98,101.6,98.4,101.3,98.6z M104,98.2c-0.4,0.1-1.7,0.3-1.7,0.2
	l0.1-2.8c0,0,1,0,1.5,0s0.6,0,0.6,0.3C104.5,96.3,104.4,98.1,104,98.2z"/>
	<path class="st8" d="M108,102.9c0,0-1.7,1.4-3.4,1.5c-2.6,0.2-7.8-2.5-8.2-2.7s-1-0.7-1.5-0.3c-0.4,0.4-3.5,2.7-3.5,2.7
	c-0.3,0.2-0.2,0.5,0.2,0.7s0.5,0.4,0.9,0s2.2-1.9,2.6-2.2c0.3-0.3,0.5-0.3,0.8-0.1c1.2,0.6,6,3.3,7.7,3.5c2.5,0.4,4-1.4,4.4-2
	C108.2,103.4,108,102.9,108,102.9z"/>
	<path class="st8" d="M99.6,101.4c-0.3,0.4,0.3,0.8,0.6,0.6c0,0,0.5-0.2,1-0.2c0.5,0.1,0.8,0.3,1.1,0c0.3-0.4,0-0.7-0.6-0.9
	C101.1,100.6,100.2,100.7,99.6,101.4z"/>
	<path class="st8" d="M106.4,101.9c0.5,0,0.7-0.2,0.3-0.8s-1.1-1-2-1c-0.6,0-0.5,0.7-0.3,0.8
	C104.5,100.9,105.9,101.8,106.4,101.9z"/>
	</g>
	</g>
	</g>
	<rect x="214.7" y="10.7" class="st0" width="3" height="138"/>
</g>
<g>
	<g>
	<path class="st0" d="M279.1,36.4c0-0.3,0.2-0.5,0.5-0.5h4.6c0.3,0,0.5,0.2,0.5,0.5v26.4c0,0.2,0.1,0.3,0.3,0.3h14.8
	c0.3,0,0.5,0.2,0.5,0.5v4.1c0,0.3-0.2,0.5-0.5,0.5h-20.2c-0.3,0-0.5-0.2-0.5-0.5L279.1,36.4L279.1,36.4z"/>
	<path class="st0" d="M314.2,36.4c0.1-0.3,0.3-0.5,0.6-0.5h4.4c0.3,0,0.5,0.2,0.6,0.5l10.9,31.2c0.1,0.3,0,0.5-0.3,0.5h-4.6
	c-0.3,0-0.5-0.1-0.6-0.5l-2.1-6.2H311l-2.1,6.2c-0.1,0.3-0.3,0.5-0.6,0.5h-4.6c-0.3,0-0.4-0.2-0.3-0.5L314.2,36.4z M321.2,56.4
	l-4.3-12.5h-0.1l-4.3,12.5H321.2z"/>
	<path class="st0" d="M356.9,68.1c-0.3,0-0.5-0.2-0.6-0.5l-6.2-22H350l-6.2,22c-0.1,0.3-0.3,0.5-0.6,0.5h-3.6
	c-0.3,0-0.5-0.2-0.6-0.5l-7.9-31.2c0-0.3,0-0.5,0.4-0.5h4.5c0.3,0,0.5,0.2,0.6,0.5l5.1,21.7h0.1l6-21.7c0.1-0.3,0.3-0.5,0.6-0.5
	h3.3c0.3,0,0.5,0.2,0.6,0.5l6.2,21.7h0.1l5-21.7c0-0.3,0.3-0.5,0.6-0.5h4.4c0.3,0,0.4,0.2,0.4,0.5l-7.9,31.2
	c0,0.3-0.3,0.5-0.6,0.5H356.9z"/>
	<path class="st0" d="M390.9,50.2c-2.6-3.4-3.6-5-3.6-7.4c0-4.3,3.6-7.4,8-7.4c4.7,0,7.9,3.4,7.9,7.2c0,2.9-1.4,5-5.6,8.2l5,6.4
	l3.2-3.8c0.2-0.2,0.4-0.2,0.7,0l2.6,2.2c0.2,0.2,0.3,0.4,0.1,0.7l-3.8,4.6l1.1,1.4c0.6,0.8,1.2,1,1.9,1h0.7c0.3,0,0.5,0.2,0.5,0.5
	v3.8c0,0.3-0.2,0.5-0.5,0.5h-1.6c-2.1,0-3.1-0.5-4.7-2.5l-0.8-1c-2.7,2.8-5.1,4-8.4,4c-5.9,0-8.9-3.6-8.9-8.6
	C384.8,56.6,386.4,53.7,390.9,50.2z M394.1,64.1c1.8,0,3.1-0.7,5.3-3l-5.7-7.3c-3.1,2.4-4,4.2-4,6
	C389.7,62.3,391.4,64.1,394.1,64.1z M398.4,42.6c0-1.6-1.3-2.8-3-2.8c-1.8,0-3.1,1.2-3.1,2.9c0,1.1,0.4,1.8,2.5,4.6
	C397.8,45,398.4,44,398.4,42.6z"/>
	<path class="st0" d="M435.7,68.1c-0.3,0-0.5-0.2-0.5-0.5V41.2c0-0.2-0.1-0.3-0.3-0.3h-8.4c-0.3,0-0.5-0.2-0.5-0.5v-4.1
	c0-0.3,0.2-0.5,0.5-0.5h23c0.3,0,0.5,0.2,0.5,0.5v4.1c0,0.3-0.2,0.5-0.5,0.5h-8.4c-0.2,0-0.3,0.1-0.3,0.3v26.4
	c0,0.3-0.2,0.5-0.5,0.5H435.7z"/>
	<path class="st0" d="M455.5,36.4c0-0.3,0.2-0.5,0.5-0.5h20.2c0.3,0,0.5,0.2,0.5,0.5v4.1c0,0.3-0.2,0.5-0.5,0.5h-14.8
	c-0.2,0-0.3,0.1-0.3,0.3v7.8c0,0.2,0.1,0.3,0.3,0.3h12.5c0.3,0,0.5,0.2,0.5,0.5V54c0,0.3-0.2,0.5-0.5,0.5h-12.5
	c-0.2,0-0.3,0.1-0.3,0.3v8.1c0,0.2,0.1,0.3,0.3,0.3h14.8c0.3,0,0.5,0.2,0.5,0.5v4.1c0,0.3-0.2,0.5-0.5,0.5H456
	c-0.3,0-0.5-0.2-0.5-0.5L455.5,36.4L455.5,36.4z"/>
	<path class="st0" d="M482.5,52c0-5.1,0.2-6.7,0.9-8.7c1.7-5.3,5.7-7.9,11.2-7.9c5.2,0,9,2.7,10.9,6.9c0.1,0.2,0,0.5-0.2,0.6
	l-4,1.9c-0.3,0.1-0.5,0-0.6-0.2c-1-2.3-2.8-4.2-6-4.2c-3.1,0-4.9,1.7-5.8,4.3c-0.4,1.3-0.6,2.6-0.6,7.3c0,4.7,0.1,6,0.6,7.3
	c0.9,2.6,2.7,4.3,5.8,4.3c3.2,0,5-1.9,6-4.2c0.1-0.2,0.3-0.4,0.6-0.2l4,1.9c0.2,0.1,0.3,0.3,0.2,0.6c-1.8,4.3-5.7,6.9-10.9,6.9
	c-5.4,0-9.5-2.7-11.2-7.9C482.7,58.8,482.5,57.2,482.5,52z"/>
	<path class="st0" d="M511.6,36.4c0-0.3,0.2-0.5,0.5-0.5h4.6c0.3,0,0.5,0.2,0.5,0.5v12.7c0,0.2,0.1,0.3,0.3,0.3h12.3
	c0.2,0,0.3-0.1,0.3-0.3V36.4c0-0.3,0.2-0.5,0.5-0.5h4.6c0.3,0,0.5,0.2,0.5,0.5v31.2c0,0.3-0.2,0.5-0.5,0.5h-4.6
	c-0.3,0-0.5-0.2-0.5-0.5v-13c0-0.2-0.1-0.3-0.3-0.3h-12.3c-0.2,0-0.3,0.1-0.3,0.3v13c0,0.3-0.2,0.5-0.5,0.5h-4.6
	c-0.3,0-0.5-0.2-0.5-0.5V36.4z"/>
	<path class="st0" d="M543.7,36.4c0-0.3,0.2-0.5,0.5-0.5h4.4c0.4,0,0.6,0.1,0.8,0.5l13.1,22.2h0.2V36.4c0-0.3,0.2-0.5,0.5-0.5h4.1
	c0.3,0,0.5,0.2,0.5,0.5v31.2c0,0.3-0.2,0.5-0.5,0.5H563c-0.4,0-0.6-0.1-0.8-0.5L549,45.4h-0.2v22.2c0,0.3-0.2,0.5-0.5,0.5h-4.1
	c-0.3,0-0.5-0.2-0.5-0.5V36.4z"/>
	<path class="st0" d="M575.6,60.9c-0.7-2-0.9-3.8-0.9-8.9s0.2-6.9,0.9-8.9c1.7-5.1,5.8-7.8,11.4-7.8c5.6,0,9.8,2.7,11.4,7.8
	c0.7,2,0.9,3.8,0.9,8.9s-0.2,6.9-0.9,8.9c-1.7,5.1-5.8,7.8-11.4,7.8C581.4,68.7,577.3,66,575.6,60.9z M593,59.4
	c0.4-1.2,0.6-2.8,0.6-7.4s-0.2-6.2-0.6-7.4c-0.9-2.6-2.8-4.2-6-4.2s-5.1,1.6-6,4.2c-0.4,1.2-0.6,2.8-0.6,7.4
	c0,4.5,0.2,6.2,0.6,7.4c0.9,2.6,2.8,4.2,6,4.2S592.1,62,593,59.4z"/>
	<path class="st0" d="M606.3,36.4c0-0.3,0.2-0.5,0.5-0.5h4.6c0.3,0,0.5,0.2,0.5,0.5v26.4c0,0.2,0.1,0.3,0.3,0.3H627
	c0.3,0,0.5,0.2,0.5,0.5v4.1c0,0.3-0.2,0.5-0.5,0.5h-20.2c-0.3,0-0.5-0.2-0.5-0.5L606.3,36.4L606.3,36.4z"/>
	<path class="st0" d="M631.9,60.9c-0.7-2-0.9-3.8-0.9-8.9s0.2-6.9,0.9-8.9c1.7-5.1,5.8-7.8,11.4-7.8c5.6,0,9.8,2.7,11.4,7.8
	c0.7,2,0.9,3.8,0.9,8.9s-0.2,6.9-0.9,8.9c-1.7,5.1-5.8,7.8-11.4,7.8C637.7,68.7,633.5,66,631.9,60.9z M649.2,59.4
	c0.4-1.2,0.6-2.8,0.6-7.4s-0.2-6.2-0.6-7.4c-0.9-2.6-2.8-4.2-6-4.2s-5.1,1.6-6,4.2c-0.4,1.2-0.6,2.8-0.6,7.4
	c0,4.5,0.2,6.2,0.6,7.4c0.9,2.6,2.8,4.2,6,4.2C646.5,63.6,648.3,62,649.2,59.4z"/>
	<path class="st0" d="M661.7,52c0-5.1,0.2-6.9,0.9-8.9c1.7-5.1,5.8-7.8,11.5-7.8c6,0,9.9,3.2,11.2,6.8c0.1,0.2,0,0.5-0.2,0.7
	l-4,1.8c-0.3,0.1-0.5,0-0.6-0.2c-1.4-2.6-3.4-4-6.5-4c-3.3,0-5.2,1.6-6.1,4.2c-0.4,1.2-0.6,2.8-0.6,7.4c0,4.5,0.2,6.2,0.6,7.4
	c0.9,2.6,2.8,4.2,6.1,4.2c2.8,0,5.3-1.4,6.1-4c0.3-1,0.5-2.3,0.5-4.2c0-0.2-0.1-0.3-0.3-0.3H675c-0.3,0-0.5-0.2-0.5-0.5v-3.8
	c0-0.3,0.2-0.5,0.5-0.5h10.7c0.3,0,0.5,0.2,0.5,0.5v2.8c0,2.7-0.2,5.4-0.8,7.1c-1.6,5-5.8,7.9-11.4,7.9c-5.7,0-9.8-2.7-11.5-7.8
	C661.8,58.9,661.7,57.1,661.7,52z"/>
	<path class="st0" d="M699.7,68.1c-0.3,0-0.5-0.2-0.5-0.5V55l-9.3-18.6c-0.1-0.2,0-0.5,0.4-0.5h4.8c0.3,0,0.5,0.1,0.7,0.5l6.3,12.5
	h0.1l6.3-12.5c0.1-0.3,0.3-0.5,0.7-0.5h4.6c0.4,0,0.5,0.2,0.4,0.5L704.9,55v12.7c0,0.3-0.2,0.5-0.5,0.5L699.7,68.1L699.7,68.1z"/>
	<path class="st0" d="M729.3,52c0-5.1,0.2-6.7,0.9-8.7c1.7-5.3,5.7-7.9,11.2-7.9c5.2,0,9,2.7,10.9,6.9c0.1,0.2,0,0.5-0.2,0.6
	l-4,1.9c-0.3,0.1-0.5,0-0.6-0.2c-1-2.3-2.8-4.2-6-4.2c-3.1,0-4.9,1.7-5.8,4.3c-0.4,1.3-0.6,2.6-0.6,7.3c0,4.7,0.1,6,0.6,7.3
	c0.9,2.6,2.7,4.3,5.8,4.3c3.2,0,5-1.9,6-4.2c0.1-0.2,0.3-0.4,0.6-0.2l4,1.9c0.2,0.1,0.3,0.3,0.2,0.6c-1.8,4.3-5.7,6.9-10.9,6.9
	c-5.4,0-9.5-2.7-11.2-7.9C729.5,58.8,729.3,57.2,729.3,52z"/>
	<path class="st0" d="M758.4,36.4c0-0.3,0.2-0.5,0.5-0.5h20.2c0.3,0,0.5,0.2,0.5,0.5v4.1c0,0.3-0.2,0.5-0.5,0.5h-14.8
	c-0.2,0-0.3,0.1-0.3,0.3v7.8c0,0.2,0.1,0.3,0.3,0.3h12.5c0.3,0,0.5,0.2,0.5,0.5V54c0,0.3-0.2,0.5-0.5,0.5h-12.5
	c-0.2,0-0.3,0.1-0.3,0.3v8.1c0,0.2,0.1,0.3,0.3,0.3h14.8c0.3,0,0.5,0.2,0.5,0.5v4.1c0,0.3-0.2,0.5-0.5,0.5h-20.2
	c-0.3,0-0.5-0.2-0.5-0.5V36.4z"/>
	<path class="st0" d="M786.4,36.4c0-0.3,0.2-0.5,0.5-0.5h4.4c0.4,0,0.6,0.1,0.8,0.5l13.1,22.2h0.2V36.4c0-0.3,0.2-0.5,0.5-0.5h4.1
	c0.3,0,0.5,0.2,0.5,0.5v31.2c0,0.3-0.2,0.5-0.5,0.5h-4.3c-0.4,0-0.6-0.1-0.8-0.5l-13.2-22.2h-0.3v22.2c0,0.3-0.2,0.5-0.5,0.5h-4.1
	c-0.3,0-0.5-0.2-0.5-0.5L786.4,36.4L786.4,36.4z"/>
	<path class="st0" d="M825.6,68.1c-0.3,0-0.5-0.2-0.5-0.5V41.2c0-0.2-0.1-0.3-0.3-0.3h-8.4c-0.3,0-0.5-0.2-0.5-0.5v-4.1
	c0-0.3,0.2-0.5,0.5-0.5h23c0.3,0,0.5,0.2,0.5,0.5v4.1c0,0.3-0.2,0.5-0.5,0.5H831c-0.2,0-0.3,0.1-0.3,0.3v26.4
	c0,0.3-0.2,0.5-0.5,0.5H825.6z"/>
	<path class="st0" d="M863.7,68.1c-0.4,0-0.6-0.1-0.7-0.5l-6.2-12.5h-5.5c-0.2,0-0.3,0.1-0.3,0.3v12.3c0,0.3-0.2,0.5-0.5,0.5h-4.6
	c-0.3,0-0.5-0.2-0.5-0.5V36.4c0-0.3,0.2-0.5,0.5-0.5h12.5c5.9,0,10.3,3.9,10.3,9.6c0,4.2-2.4,7.5-6.1,8.9l6.8,13.1
	c0.2,0.3,0,0.6-0.3,0.6H863.7z M863.1,45.6c0-2.8-2-4.6-4.9-4.6h-6.9c-0.2,0-0.3,0.1-0.3,0.3v8.6c0,0.2,0.1,0.3,0.3,0.3h6.9
	C861.1,50.1,863.1,48.3,863.1,45.6z"/>
	<path class="st0" d="M875.7,36.4c0-0.3,0.2-0.5,0.5-0.5h20.2c0.3,0,0.5,0.2,0.5,0.5v4.1c0,0.3-0.2,0.5-0.5,0.5h-14.8
	c-0.2,0-0.3,0.1-0.3,0.3v7.8c0,0.2,0.1,0.3,0.3,0.3h12.5c0.3,0,0.5,0.2,0.5,0.5V54c0,0.3-0.2,0.5-0.5,0.5h-12.5
	c-0.2,0-0.3,0.1-0.3,0.3v8.1c0,0.2,0.1,0.3,0.3,0.3h14.8c0.3,0,0.5,0.2,0.5,0.5v4.1c0,0.3-0.2,0.5-0.5,0.5h-20.2
	c-0.3,0-0.5-0.2-0.5-0.5V36.4z"/>
	<path class="st0" d="M277.8,95.1h-1l0.1-7.5h30.4l0.2,7.5h-1c-0.2-1.5-0.6-2.8-1-3.7s-0.9-1.6-1.4-2s-1.1-0.6-1.8-0.7
	c-0.7-0.1-1.6-0.1-2.8-0.1h-5v22.2c0,2.3,0.1,3.9,0.2,4.8c0.1,0.9,0.5,1.5,1,1.8s1.5,0.5,2.8,0.5h1.6v1h-15.7v-1h1.6
	c1.3,0,2.3-0.2,2.8-0.5s0.9-0.9,1-1.8c0.1-0.9,0.2-2.5,0.2-4.8V88.6h-6.5c-1.2,0-2.2,0.2-2.9,0.7c-0.7,0.4-1.2,1.1-1.5,1.9
	C278.6,92.1,278.2,93.3,277.8,95.1z"/>
	<path class="st0" d="M330,105.7v6.7c0,1.9,0,3.2,0.1,3.9s0.3,1.1,0.7,1.3c0.4,0.2,1.2,0.3,2.3,0.3v1h-9.7v-1c1.2,0,2-0.1,2.4-0.3
	s0.7-0.6,0.8-1.3c0.1-0.7,0.2-2,0.2-3.9v-6.1c0-2.2-0.3-3.6-1-4.5c-0.6-0.8-1.7-1.2-3.1-1.2c-1.7,0-3.6,1.4-5.8,4.2v7.6
	c0,1.9,0,3.2,0.1,3.8c0.1,0.7,0.3,1.1,0.7,1.3s1.1,0.3,2.1,0.3v1h-9.6v-1c1.2,0,2-0.1,2.4-0.3s0.7-0.6,0.8-1.3
	c0.1-0.7,0.1-2,0.1-3.9V93.4c0-1.3,0-2.2-0.1-2.8s-0.4-1-0.8-1.2c-0.4-0.3-1.2-0.4-2.2-0.4v-1c0.9,0,2-0.1,3.2-0.3s2.2-0.4,3-0.7
	h0.3v16c1.2-1.3,2.4-2.3,3.4-2.9s2.2-1,3.4-1C327.9,99.2,330,101.4,330,105.7z"/>
	<path class="st0" d="M353.1,106.4h-13.2c-0.1,0.9-0.1,1.6-0.1,2.2c0,6.5,2.1,9.8,6.2,9.8c2.8,0,4.8-1.3,6-3.8h1.1
	c-0.1,0.4-0.4,1-0.9,1.8s-1.4,1.5-2.5,2.2s-2.6,1-4.3,1c-1.5,0-2.9-0.4-4.4-1.1s-2.6-1.9-3.6-3.4c-0.9-1.5-1.4-3.4-1.4-5.5
	c0-1.9,0.4-3.6,1.2-5.2c0.8-1.6,1.9-2.9,3.3-3.8c1.4-0.9,3-1.4,4.7-1.4c1.2,0,2.3,0.2,3.2,0.6c1,0.4,1.8,0.9,2.5,1.6
	c0.7,0.7,1.2,1.5,1.6,2.3C352.9,104.6,353.1,105.5,353.1,106.4z M340,105.4h9c0.1-0.4,0.1-0.7,0.1-0.9c0-1-0.2-1.8-0.6-2.4
	s-0.9-1.1-1.5-1.4s-1.3-0.4-2-0.4c-1.8,0-3,0.6-3.7,1.7C340.6,103,340.2,104.2,340,105.4z"/>
	<path class="st0" d="M391.8,87.6h10.5v1c-1.4,0.1-2.5,0.4-3.2,0.9s-1.1,1.2-1.2,2s-0.2,2-0.2,3.7v10.4c0,1.7,0,2.9-0.1,3.8
	c0,0.9-0.1,1.7-0.3,2.4c-0.2,0.8-0.5,1.5-0.8,2.2c-0.9,1.6-2.3,2.9-4.3,3.9s-4.4,1.5-7.2,1.5c-2.9,0-5.2-0.5-6.9-1.4
	c-1.7-0.9-3-2-3.9-3.2c-0.7-1.1-1.2-2.2-1.3-3.5c-0.2-1.2-0.2-3.3-0.2-6.3v-9.6c0-1.9,0-3.2-0.1-4s-0.2-1.4-0.5-1.8
	c-0.2-0.4-0.6-0.7-1.1-0.8s-1.4-0.2-2.5-0.2h-0.7v-1h14.3v1c-1.4,0-2.3,0-2.9,0.1s-1,0.3-1.3,0.7s-0.5,1-0.5,1.9
	c-0.1,0.9-0.1,2.2-0.1,4v9.8c0,1.4,0,2.6,0,3.4s0.1,1.6,0.1,2.2s0.2,1.2,0.3,1.7c0.2,0.5,0.4,1.1,0.7,1.6c0.6,1.1,1.6,1.9,2.9,2.6
	c1.3,0.7,2.9,1.1,4.8,1.1c1.1,0,2.3-0.1,3.4-0.4s2.2-0.7,3.2-1.4c1-0.6,1.9-1.5,2.5-2.5c0.6-0.9,1-1.9,1.1-3s0.2-2.8,0.2-5.2V94.6
	c0-1.6-0.1-2.7-0.2-3.5s-0.6-1.4-1.2-1.9c-0.7-0.5-1.8-0.8-3.3-0.9L391.8,87.6L391.8,87.6z"/>
	<path class="st0" d="M409.8,99.2h0.6c0.3,0.9,0.6,2.2,0.6,3.9c1.2-1.4,2.4-2.4,3.5-3s2.4-0.9,3.7-0.9c1.4,0,2.5,0.3,3.4,0.9
	c0.9,0.6,1.5,1.3,1.9,2.2s0.6,2,0.6,3.1v7c0,1.9,0,3.2,0.1,3.9s0.3,1.1,0.7,1.3c0.4,0.2,1.1,0.3,2.3,0.3v1h-9.7v-1
	c1.2,0,2-0.1,2.4-0.3s0.7-0.6,0.8-1.3c0.1-0.7,0.2-2,0.2-3.9v-6.1c0-3.8-1.3-5.7-3.8-5.7c-0.8,0-1.6,0.2-2.3,0.6
	c-0.7,0.4-1.3,0.8-1.8,1.3s-1.1,1.2-2,2.2v7.7c0,1.9,0,3.2,0.1,3.9s0.3,1.1,0.7,1.3c0.4,0.2,1.1,0.3,2.2,0.3v1h-9.6v-1
	c1.1,0,1.9-0.1,2.3-0.3s0.6-0.6,0.7-1.3s0.1-2,0.1-3.9v-5.6c0-1.9,0-3.2-0.1-3.9s-0.3-1.1-0.7-1.3c-0.4-0.2-1.1-0.3-2.3-0.3v-1
	C407.1,99.9,408.9,99.6,409.8,99.2z"/>
	<path class="st0" d="M436.6,99.2v13.2v2c0,1.4,0.2,2.3,0.5,2.8s1,0.7,2.2,0.7h0.7v1h-10.2v-1h0.8c1.1,0,1.9-0.2,2.2-0.6
	c0.4-0.4,0.6-1.4,0.6-3v-7.6c0-1.8-0.1-3.1-0.2-3.8s-0.4-1.1-0.9-1.2c-0.4-0.2-1.3-0.2-2.5-0.2v-1c0.7,0,1.7-0.1,2.9-0.4
	c1.2-0.2,2.4-0.5,3.5-0.8L436.6,99.2L436.6,99.2z M432.1,89.5c0-0.7,0.2-1.3,0.7-1.7c0.5-0.5,1-0.7,1.7-0.7s1.2,0.2,1.7,0.7
	s0.7,1.1,0.7,1.7c0,0.7-0.2,1.3-0.7,1.8s-1,0.7-1.7,0.7s-1.2-0.2-1.7-0.7C432.3,90.8,432.1,90.2,432.1,89.5z"/>
	<path class="st0" d="M451.7,119.7h-1.3l-6.7-15.2c-0.6-1.4-1.1-2.3-1.5-2.8s-1-0.7-1.9-0.7v-1h8.5v1c-0.8,0-1.4,0.1-1.8,0.2
	c-0.4,0.1-0.6,0.4-0.6,0.9c0,0.3,0.2,0.8,0.5,1.6l5.5,12.3l4.6-10.3c0.7-1.6,1.1-2.7,1.1-3.2c0-1-0.8-1.6-2.3-1.7v-1h6.4v1
	c-0.9,0.1-1.6,0.5-2.1,1.2s-1.2,2-2.1,3.9L451.7,119.7z"/>
	<path class="st0" d="M479.9,106.4h-13.2c-0.1,0.9-0.1,1.6-0.1,2.2c0,6.5,2.1,9.8,6.2,9.8c2.8,0,4.8-1.3,6-3.8h1.1
	c-0.1,0.4-0.4,1-0.9,1.8s-1.4,1.5-2.5,2.2s-2.6,1-4.3,1c-1.5,0-2.9-0.4-4.4-1.1s-2.6-1.9-3.6-3.4c-0.9-1.5-1.4-3.4-1.4-5.5
	c0-1.9,0.4-3.6,1.2-5.2c0.8-1.6,1.9-2.9,3.3-3.8c1.4-0.9,3-1.4,4.7-1.4c1.2,0,2.2,0.2,3.2,0.6c1,0.4,1.8,0.9,2.5,1.6
	c0.7,0.7,1.2,1.5,1.6,2.3S479.9,105.5,479.9,106.4z M466.8,105.4h9c0.1-0.4,0.1-0.7,0.1-0.9c0-1-0.2-1.8-0.6-2.4
	c-0.4-0.6-0.9-1.1-1.5-1.4s-1.3-0.4-2-0.4c-1.8,0-3,0.6-3.7,1.7C467.4,103,467,104.2,466.8,105.4z"/>
	<path class="st0" d="M489.5,108v4.4c0,1.8,0,3.1,0.1,3.7c0.1,0.7,0.3,1.1,0.7,1.4c0.4,0.2,1,0.4,2,0.4h0.6v1h-10v-1
	c1.2,0,2-0.1,2.4-0.3s0.7-0.6,0.8-1.3s0.2-2,0.2-3.9v-5.3c0-1.5,0-2.6-0.1-3.2c0-0.6-0.2-1.1-0.3-1.4c-0.2-0.3-0.5-0.6-0.9-0.6
	c-0.4-0.1-1.1-0.1-2-0.1v-1c1.4-0.2,3.2-0.6,5.4-1.3l0.3-0.1c0.4,1.5,0.7,3.1,0.7,5c0.3-0.8,0.8-1.5,1.3-2.2s1-1.2,1.5-1.6
	c0.5-0.4,1.1-0.7,1.7-0.9s1.1-0.3,1.6-0.3c1,0,1.8,0.3,2.4,0.9c0.6,0.6,0.9,1.3,0.9,2c0,0.4-0.1,0.8-0.4,1.1
	c-0.3,0.3-0.7,0.5-1.1,0.5c-0.5,0-0.9-0.1-1.1-0.4s-0.4-0.6-0.6-1c-0.4-0.9-0.9-1.4-1.3-1.4c-0.5,0-1.1,0.3-1.9,0.8
	c-0.7,0.6-1.4,1.4-1.9,2.5C489.8,105.3,489.5,106.5,489.5,108z"/>
	<path class="st0" d="M501.5,119.5v-6.2h0.9c0.3,1.4,0.9,2.6,1.9,3.7c1,1.1,2.2,1.7,3.7,1.7c1.3,0,2.2-0.4,2.7-1.1s0.8-1.5,0.8-2.2
	c0-1.1-0.4-2-1.1-2.6c-0.7-0.6-1.9-1.3-3.5-2.1c-1.7-0.8-3-1.7-3.9-2.5s-1.4-2-1.4-3.6c0-0.8,0.2-1.6,0.6-2.4c0.4-0.8,1-1.5,1.7-2
	c0.8-0.5,1.7-0.8,2.7-0.8c1.6,0,3,0.7,4.1,2c0.2-0.2,0.3-0.4,0.5-0.8s0.3-0.6,0.4-0.9h0.9v5.9h-0.9c-0.2-1.2-0.8-2.4-1.6-3.5
	s-1.9-1.7-3.3-1.7c-1,0-1.7,0.3-2.3,0.9c-0.5,0.6-0.8,1.3-0.8,2c0,1,0.4,1.7,1.1,2.3c0.7,0.6,1.8,1.2,3.4,1.9
	c1.7,0.8,3.1,1.6,4.1,2.6c1,0.9,1.5,2.3,1.5,4.2c0,1.1-0.2,2-0.7,2.9c-0.5,0.8-1.2,1.5-2,2c-0.9,0.5-1.8,0.7-3,0.7
	c-1.1,0-1.9-0.2-2.5-0.5s-1.3-0.9-2.1-1.6c-0.2,0.2-0.4,0.6-0.6,1s-0.3,0.7-0.4,0.9h-0.9V119.5z"/>
	<path class="st0" d="M523.5,99.2v13.2v2c0,1.4,0.2,2.3,0.5,2.8s1,0.7,2.2,0.7h0.7v1h-10.2v-1h0.8c1.1,0,1.9-0.2,2.2-0.6
	c0.4-0.4,0.6-1.4,0.6-3v-7.6c0-1.8-0.1-3.1-0.2-3.8c-0.1-0.7-0.4-1.1-0.9-1.2c-0.4-0.2-1.3-0.2-2.5-0.2v-1c0.7,0,1.7-0.1,2.9-0.4
	c1.2-0.2,2.4-0.5,3.5-0.8L523.5,99.2L523.5,99.2z M518.9,89.5c0-0.7,0.2-1.3,0.7-1.7c0.5-0.5,1-0.7,1.7-0.7s1.2,0.2,1.7,0.7
	s0.7,1.1,0.7,1.7c0,0.7-0.2,1.3-0.7,1.8s-1,0.7-1.7,0.7s-1.2-0.2-1.7-0.7C519.2,90.8,518.9,90.2,518.9,89.5z"/>
	<path class="st0" d="M540.1,101h-5.7v11.4c0,1.2,0,2.2,0.2,2.9c0.1,0.7,0.4,1.4,0.8,1.9c0.4,0.5,1.1,0.8,1.9,0.8
	c0.7,0,1.3-0.2,1.7-0.5s0.8-0.8,1.2-1.4l0.7,0.4c-0.6,1.3-1.4,2.1-2.4,2.5s-1.8,0.6-2.5,0.6c-0.9,0-1.7-0.2-2.5-0.7
	c-0.8-0.4-1.3-1-1.6-1.7c-0.3-0.6-0.5-1.2-0.6-1.9s-0.1-1.9-0.1-3.7v-10.8h-2.8v-1c1.2-0.1,2.3-0.6,3.3-1.5s1.7-2.4,2-4.4h0.7v5.9
	h5.7L540.1,101L540.1,101z"/>
	<path class="st0" d="M553.4,115.3l4.7-11.3c0.4-1,0.7-1.6,0.7-1.8c0-0.4-0.3-0.8-0.8-0.9c-0.5-0.2-1.1-0.3-1.7-0.3v-1h6.6v1
	c-1.1,0.1-1.9,0.4-2.3,0.9c-0.5,0.5-1,1.6-1.7,3.2l-8.4,20.4c-0.7,1.7-1.4,3-2,3.8c-0.6,0.8-1.4,1.2-2.2,1.2c-0.4,0-0.7-0.1-1-0.4
	s-0.4-0.6-0.4-1c0-1.1,0.8-1.9,2.4-2.6c0.9-0.4,1.5-0.8,1.8-1.1s0.6-0.8,0.9-1.6l1.8-4.5l-7.1-15.2c-0.6-1.3-1.1-2.1-1.5-2.5
	S542,101,541,101v-1h8.7v1c-0.9,0.1-1.5,0.1-1.8,0.3c-0.3,0.1-0.5,0.3-0.5,0.7c0,0.1,0,0.2,0.1,0.5s0.2,0.5,0.3,0.8s0.3,0.6,0.5,1
	L553.4,115.3z"/>
	<path class="st0" d="M576.2,109.4c0-1.4,0.3-2.8,0.8-4s1.2-2.3,2.1-3.2s2-1.6,3.2-2.1s2.5-0.8,4-0.8c1.4,0,2.7,0.2,4,0.8
	c1.2,0.5,2.3,1.2,3.2,2.1s1.6,2,2.1,3.2c0.5,1.3,0.8,2.6,0.8,4.1c0,2.1-0.5,4-1.4,5.5s-2.2,2.7-3.8,3.5s-3.2,1.2-4.9,1.2
	s-3.3-0.4-4.8-1.2s-2.8-1.9-3.8-3.5S576.2,111.6,576.2,109.4z M580.1,109.5c0,1.6,0.1,3,0.4,4.3c0.3,1.3,0.9,2.4,1.8,3.3
	c0.9,0.9,2.3,1.4,4,1.4c1.3,0,2.4-0.3,3.2-0.8c0.9-0.5,1.5-1.2,2-2.1c0.4-0.9,0.7-1.8,0.9-2.8s0.2-2.1,0.2-3.2
	c0-2.9-0.5-5.2-1.4-6.8s-2.6-2.5-4.9-2.5c-2.3,0-4,0.8-4.9,2.4S580.1,106.6,580.1,109.5z"/>
	<path class="st0" d="M609.6,100v1h-3.9v13.4c0,1,0.1,1.8,0.2,2.2c0.1,0.5,0.4,0.8,0.8,0.9c0.4,0.2,1,0.3,1.8,0.3h1v1h-10.2v-1
	c1,0,1.7-0.1,2.1-0.3c0.4-0.2,0.7-0.5,0.8-1s0.2-1.3,0.2-2.4v-13.2h-3.5v-1h3.5v-3.6c0-1.6,0.3-3.2,0.9-4.6s1.5-2.6,2.7-3.4
	c1.2-0.9,2.8-1.3,4.6-1.3c1.3,0,2.4,0.2,3.3,0.6c0.9,0.4,1.6,0.9,2.1,1.4c0.4,0.5,0.7,1,0.7,1.5c0,0.4-0.2,0.8-0.5,1.1
	s-0.7,0.5-1.1,0.5c-0.5,0-0.9-0.2-1.3-0.5s-0.7-0.8-1-1.4c-0.3-0.6-0.7-1-1.1-1.5s-1.1-0.6-1.8-0.6c-1.7,0-2.8,0.7-3.4,2.1
	c-0.5,1.4-0.8,2.9-0.8,4.3v5.4h3.9V100z"/>
	<path class="st0" d="M656.8,103.2h-16.3v7.6c0,2.3,0.1,3.9,0.2,4.8c0.1,0.9,0.5,1.5,1,1.8s1.5,0.5,2.8,0.5h0.8v1h-14.1v-1h0.8
	c1.3,0,2.3-0.2,2.8-0.5s0.9-0.9,1-1.8c0.1-0.9,0.2-2.5,0.2-4.8V95.4c0-2,0-3.4-0.1-4.1s-0.2-1.4-0.5-1.8c-0.3-0.4-0.7-0.6-1.3-0.7
	c-0.6-0.1-1.5-0.1-2.9-0.1v-1h14.1v1c-1.4,0-2.3,0-2.9,0.1c-0.6,0.1-1,0.3-1.3,0.7s-0.5,1-0.5,1.9c-0.1,0.9-0.1,2.2-0.1,4v6.2
	h16.3v-6.2c0-1.9,0-3.2-0.1-4s-0.2-1.4-0.4-1.8c-0.2-0.4-0.6-0.7-1.1-0.8s-1.4-0.2-2.5-0.2h-0.9v-1h14.3v1c-1.7,0-2.8,0.1-3.4,0.3
	s-0.9,0.7-1.1,1.6c-0.2,0.8-0.2,2.5-0.2,4.9v15.4c0,2.3,0.1,3.9,0.2,4.8c0.1,0.9,0.5,1.5,1,1.8s1.5,0.5,2.8,0.5h0.7v1h-14.3v-1
	h1.1c1.3,0,2.2-0.2,2.8-0.5c0.5-0.3,0.8-0.9,1-1.8c0.1-0.9,0.2-2.5,0.2-4.8L656.8,103.2L656.8,103.2z"/>
	<path class="st0" d="M669.3,109.4c0-1.4,0.3-2.8,0.8-4s1.2-2.3,2.1-3.2s2-1.6,3.2-2.1s2.5-0.8,4-0.8c1.4,0,2.7,0.2,4,0.8
	c1.2,0.5,2.3,1.2,3.2,2.1s1.6,2,2.1,3.2c0.5,1.3,0.8,2.6,0.8,4.1c0,2.1-0.5,4-1.4,5.5s-2.2,2.7-3.8,3.5s-3.2,1.2-4.9,1.2
	s-3.3-0.4-4.8-1.2s-2.8-1.9-3.8-3.5S669.3,111.6,669.3,109.4z M673.2,109.5c0,1.6,0.1,3,0.4,4.3c0.3,1.3,0.9,2.4,1.8,3.3
	c0.9,0.9,2.3,1.4,4,1.4c1.3,0,2.4-0.3,3.2-0.8c0.9-0.5,1.5-1.2,2-2.1c0.4-0.9,0.7-1.8,0.9-2.8s0.2-2.1,0.2-3.2
	c0-2.9-0.5-5.2-1.4-6.8s-2.6-2.5-4.9-2.5c-2.3,0-4,0.8-4.9,2.4S673.2,106.6,673.2,109.5z"/>
	<path class="st0" d="M697.7,99.2h0.6c0.3,0.9,0.6,2.2,0.6,3.9c1.2-1.4,2.4-2.4,3.5-3s2.4-0.9,3.7-0.9c1.4,0,2.5,0.3,3.4,0.9
	c0.9,0.6,1.5,1.3,1.9,2.2s0.6,2,0.6,3.1v7c0,1.9,0,3.2,0.1,3.9s0.3,1.1,0.7,1.3s1.1,0.3,2.3,0.3v1h-9.7v-1c1.2,0,2-0.1,2.4-0.3
	s0.7-0.6,0.8-1.3s0.2-2,0.2-3.9v-6.1c0-3.8-1.3-5.7-3.8-5.7c-0.8,0-1.6,0.2-2.3,0.6c-0.7,0.4-1.3,0.8-1.8,1.3s-1.1,1.2-2,2.2v7.7
	c0,1.9,0,3.2,0.1,3.9s0.3,1.1,0.7,1.3s1.1,0.3,2.2,0.3v1h-9.6v-1c1.1,0,1.9-0.1,2.3-0.3c0.4-0.2,0.6-0.6,0.7-1.3
	c0.1-0.7,0.1-2,0.1-3.9v-5.6c0-1.9,0-3.2-0.1-3.9s-0.3-1.1-0.7-1.3s-1.1-0.3-2.3-0.3v-1C695.1,99.9,696.9,99.6,697.7,99.2z"/>
	<path class="st0" d="M732.6,101.6c1.3-1.5,2.7-2.2,4-2.2c0.8,0,1.4,0.2,1.7,0.6c0.4,0.4,0.6,0.8,0.6,1.3c0,0.4-0.1,0.8-0.4,1.1
	c-0.3,0.3-0.6,0.5-1,0.5c-0.5,0-1-0.3-1.3-0.9c-0.2-0.3-0.4-0.6-0.5-0.7c-0.1-0.1-0.3-0.2-0.5-0.2c-0.6,0-1.2,0.4-2,1.2
	c0.8,1.3,1.2,2.6,1.2,4c0,1.9-0.7,3.6-2.1,5c-1.3,1.3-3.5,2-6.6,2.2c-1.2,0-2.3,0.2-3.3,0.5s-1.5,0.8-1.5,1.5s0.4,1.1,1.3,1.3
	c0.9,0.2,2.6,0.4,5.1,0.5c1.7,0.1,3.2,0.3,4.5,0.6s2.5,0.9,3.6,1.8c1,0.9,1.6,2.3,1.6,4.2c0,1.3-0.3,2.4-1,3.4
	c-0.7,1-1.7,1.8-3.2,2.4c-1.4,0.6-3.2,0.9-5.4,0.9c-1.5,0-2.8-0.2-4-0.5c-1.2-0.3-2.2-0.7-3-1.3c-0.8-0.5-1.5-1.2-1.9-1.9
	s-0.6-1.5-0.6-2.3s0.2-1.5,0.7-2.2s1.2-1,2.1-1c0.2,0,0.5,0,0.7,0.1c-1,1-1.5,2.1-1.5,3.3c0,1.1,0.4,2,1.1,2.7
	c0.8,0.7,1.7,1.2,2.9,1.5c1.2,0.3,2.4,0.5,3.6,0.5c2.4,0,4.2-0.5,5.4-1.4c1.2-0.9,1.8-2.1,1.8-3.4c0-1.2-0.4-2.2-1.1-2.8
	c-0.7-0.6-1.6-1-2.6-1.2s-2.4-0.3-4-0.4c-1.4,0-2.8-0.2-3.9-0.4c-1.2-0.2-2.1-0.6-2.9-1.1c-0.7-0.5-1.1-1.3-1.1-2.3
	c0-1.1,0.4-1.9,1.2-2.6c0.8-0.6,1.8-1,3-1.2c-1.5-0.9-2.7-2-3.4-3.1c-0.7-1.2-1.1-2.4-1.1-3.6c0-1.2,0.3-2.4,1-3.5
	s1.6-1.9,2.8-2.5s2.5-0.9,3.9-0.9c1.2,0,2.4,0.2,3.5,0.6C731,100.3,731.9,100.9,732.6,101.6z M722.2,106.6c0,1.5,0.3,2.8,0.9,4
	c0.6,1.2,1.7,1.8,3.4,1.8c1.2,0,2.2-0.4,2.8-1.1c0.6-0.7,1-1.6,1.2-2.5s0.3-1.8,0.3-2.5c0-1.3-0.3-2.7-0.8-4s-1.7-2-3.6-2
	c-1.8,0-3,0.7-3.5,2.1C722.5,103.8,722.2,105.2,722.2,106.6z"/>
	<path class="st0" d="M761.2,103.5l9.8-8.8c1-0.8,1.7-1.6,2.3-2.2s0.8-1.3,0.8-1.8c0-0.8-0.3-1.4-1-1.6c-0.6-0.2-1.4-0.4-2.3-0.4
	v-1h11.8v1c-1,0-2.1,0.3-3.2,0.7c-1.1,0.4-2.6,1.5-4.5,3.3l-8.2,7.6l14,14.1c1.2,1.2,2.3,2.2,3.2,2.7c0.9,0.6,2,0.8,3.4,0.8v1H771
	v-1c1.6,0,2.7-0.1,3.5-0.3c0.7-0.2,1.1-0.6,1.1-1.3c0-0.6-1.1-2-3.2-4.2l-8.9-9l-2.3,2v5.7c0,1.9,0,3.2,0.1,4s0.2,1.4,0.5,1.9
	s0.7,0.8,1.3,0.9c0.6,0.1,1.5,0.2,2.8,0.2v1h-14.1v-1h1c1.3,0,2.2-0.2,2.8-0.5c0.5-0.3,0.8-0.9,1-1.8c0.1-0.9,0.2-2.5,0.2-4.8
	V95.3c0-1.9,0-3.3-0.1-4.1s-0.2-1.4-0.5-1.8s-0.7-0.6-1.2-0.7c-0.5-0.1-1.4-0.2-2.7-0.2v-1h13.9v1c-1.4,0-2.3,0-2.9,0.1
	s-1,0.3-1.3,0.7s-0.5,1-0.5,1.9c-0.1,0.9-0.1,2.2-0.1,4v8.3H761.2z"/>
	<path class="st0" d="M787.4,109.4c0-1.4,0.3-2.8,0.8-4s1.2-2.3,2.1-3.2s2-1.6,3.2-2.1s2.5-0.8,4-0.8c1.4,0,2.7,0.2,4,0.8
	c1.2,0.5,2.3,1.2,3.2,2.1s1.6,2,2.1,3.2c0.5,1.3,0.8,2.6,0.8,4.1c0,2.1-0.5,4-1.4,5.5s-2.2,2.7-3.8,3.5s-3.2,1.2-4.9,1.2
	s-3.3-0.4-4.8-1.2s-2.8-1.9-3.8-3.5S787.4,111.6,787.4,109.4z M791.2,109.5c0,1.6,0.1,3,0.4,4.3c0.3,1.3,0.9,2.4,1.8,3.3
	c0.9,0.9,2.3,1.4,4,1.4c1.3,0,2.4-0.3,3.2-0.8c0.9-0.5,1.5-1.2,2-2.1c0.4-0.9,0.7-1.8,0.9-2.8s0.2-2.1,0.2-3.2
	c0-2.9-0.5-5.2-1.4-6.8s-2.6-2.5-4.9-2.5c-2.3,0-4,0.8-4.9,2.4S791.2,106.6,791.2,109.5z"/>
	<path class="st0" d="M815.8,99.2h0.6c0.3,0.9,0.6,2.2,0.6,3.9c1.2-1.4,2.4-2.4,3.5-3s2.4-0.9,3.7-0.9c1.4,0,2.5,0.3,3.4,0.9
	c0.9,0.6,1.5,1.3,1.9,2.2s0.6,2,0.6,3.1v7c0,1.9,0,3.2,0.1,3.9s0.3,1.1,0.7,1.3s1.1,0.3,2.3,0.3v1h-9.7v-1c1.2,0,2-0.1,2.4-0.3
	s0.7-0.6,0.8-1.3s0.2-2,0.2-3.9v-6.1c0-3.8-1.3-5.7-3.8-5.7c-0.8,0-1.6,0.2-2.3,0.6c-0.7,0.4-1.3,0.8-1.8,1.3s-1.1,1.2-2,2.2v7.7
	c0,1.9,0,3.2,0.1,3.9s0.3,1.1,0.7,1.3s1.1,0.3,2.2,0.3v1h-9.6v-1c1.1,0,1.9-0.1,2.3-0.3c0.4-0.2,0.6-0.6,0.7-1.3
	c0.1-0.7,0.1-2,0.1-3.9v-5.6c0-1.9,0-3.2-0.1-3.9s-0.3-1.1-0.7-1.3s-1.1-0.3-2.3-0.3v-1C813.2,99.9,814.9,99.6,815.8,99.2z"/>
	<path class="st0" d="M850.7,101.6c1.3-1.5,2.7-2.2,4-2.2c0.8,0,1.4,0.2,1.7,0.6c0.4,0.4,0.6,0.8,0.6,1.3c0,0.4-0.1,0.8-0.4,1.1
	c-0.3,0.3-0.6,0.5-1,0.5c-0.5,0-1-0.3-1.3-0.9c-0.2-0.3-0.4-0.6-0.5-0.7c-0.1-0.1-0.3-0.2-0.5-0.2c-0.6,0-1.2,0.4-2,1.2
	c0.8,1.3,1.2,2.6,1.2,4c0,1.9-0.7,3.6-2.1,5c-1.3,1.3-3.5,2-6.6,2.2c-1.2,0-2.3,0.2-3.3,0.5s-1.5,0.8-1.5,1.5s0.4,1.1,1.3,1.3
	c0.9,0.2,2.6,0.4,5.1,0.5c1.7,0.1,3.2,0.3,4.5,0.6s2.5,0.9,3.6,1.8c1,0.9,1.6,2.3,1.6,4.2c0,1.3-0.3,2.4-1,3.4
	c-0.7,1-1.7,1.8-3.2,2.4c-1.4,0.6-3.2,0.9-5.4,0.9c-1.5,0-2.8-0.2-4-0.5c-1.2-0.3-2.2-0.7-3-1.3c-0.8-0.5-1.5-1.2-1.9-1.9
	s-0.6-1.5-0.6-2.3s0.2-1.5,0.7-2.2s1.2-1,2.1-1c0.2,0,0.5,0,0.7,0.1c-1,1-1.5,2.1-1.5,3.3c0,1.1,0.4,2,1.1,2.7
	c0.8,0.7,1.7,1.2,2.9,1.5c1.2,0.3,2.4,0.5,3.6,0.5c2.4,0,4.2-0.5,5.4-1.4c1.2-0.9,1.8-2.1,1.8-3.4c0-1.2-0.4-2.2-1.1-2.8
	c-0.7-0.6-1.6-1-2.6-1.2s-2.4-0.3-4-0.4c-1.4,0-2.8-0.2-3.9-0.4c-1.2-0.2-2.1-0.6-2.9-1.1c-0.7-0.5-1.1-1.3-1.1-2.3
	c0-1.1,0.4-1.9,1.2-2.6c0.8-0.6,1.8-1,3-1.2c-1.5-0.9-2.7-2-3.4-3.1c-0.7-1.2-1.1-2.4-1.1-3.6c0-1.2,0.3-2.4,1-3.5
	s1.6-1.9,2.8-2.5s2.5-0.9,3.9-0.9c1.2,0,2.4,0.2,3.5,0.6C849.1,100.3,850,100.9,850.7,101.6z M840.3,106.6c0,1.5,0.3,2.8,0.9,4
	c0.6,1.2,1.7,1.8,3.4,1.8c1.2,0,2.2-0.4,2.8-1.1c0.6-0.7,1-1.6,1.2-2.5s0.3-1.8,0.3-2.5c0-1.3-0.3-2.7-0.8-4s-1.7-2-3.6-2
	c-1.8,0-3,0.7-3.5,2.1C840.5,103.8,840.3,105.2,840.3,106.6z"/>
	</g>
</g>
</svg>